<?xml version="1.0" encoding="UTF-8" standalone="no"?>
<svg
   viewBox="0 0 126 150"
   version="1.1"
   id="svg30"
   sodipodi:docname="switch-casque.svg"
   inkscape:version="1.2.2 (732a01da63, 2022-12-09)"
   xml:space="preserve"
   xmlns:inkscape="http://www.inkscape.org/namespaces/inkscape"
   xmlns:sodipodi="http://sodipodi.sourceforge.net/DTD/sodipodi-0.dtd"
   xmlns="http://www.w3.org/2000/svg"
   xmlns:svg="http://www.w3.org/2000/svg"
   xmlns:rdf="http://www.w3.org/1999/02/22-rdf-syntax-ns#"
   xmlns:cc="http://creativecommons.org/ns#"
   xmlns:dc="http://purl.org/dc/elements/1.1/"><metadata
     id="metadata36"><rdf:RDF><cc:Work
         rdf:about=""><dc:format>image/svg+xml</dc:format><dc:type
           rdf:resource="http://purl.org/dc/dcmitype/StillImage" /><dc:title /></cc:Work></rdf:RDF></metadata><defs
     id="defs34"><clipPath
       clipPathUnits="userSpaceOnUse"
       id="clipPath441"><rect
         style="fill:#bebebe;stroke:#bebebe;stroke-width:2.04821;stroke-linecap:round;stroke-linejoin:round;stop-color:#000000"
         id="rect443"
         width="231.86043"
         height="421.45038"
         x="48.073792"
         y="40.476192" /></clipPath></defs><sodipodi:namedview
     pagecolor="#ffffff"
     bordercolor="#666666"
     borderopacity="1"
     objecttolerance="10"
     gridtolerance="10"
     guidetolerance="10"
     inkscape:pageopacity="0"
     inkscape:pageshadow="2"
     inkscape:window-width="1920"
     inkscape:window-height="1001"
     id="namedview32"
     showgrid="false"
     inkscape:zoom="4"
     inkscape:cx="80.25"
     inkscape:cy="92.125"
     inkscape:window-x="-9"
     inkscape:window-y="-9"
     inkscape:window-maximized="1"
     inkscape:current-layer="svg30"
     inkscape:showpageshadow="2"
     inkscape:pagecheckerboard="0"
     inkscape:deskcolor="#d1d1d1" /><path
     d="m0 0h126v150h-126z"
     fill="none"
     opacity=".6"
     id="path12" /><path
     id="path24"
     d="m 61.470703,5.9003906 c -0.802001,-0.00707 -1.560882,0.0049 -2.224609,0.044922 C 42.494489,6.9554297 30.533298,11.989899 24.340559,19.36962 14.753445,30.794325 16.275561,46.234993 14.216797,48.636719 L 13.798828,51.75 h 1.019531 v 47.970703 c 0.869823,-0.475983 1.722541,-0.988132 2.53125,-1.580078 1.469999,8.529995 4.909851,22.689925 12.089844,27.919925 0.679999,0.55 0.140625,-2.81055 0.140625,-3.56055 0.55,0.36 3.050006,4.56055 9,7.06055 0.02,0 -5.119532,-4.85001 -5.769531,-15.25 -0.999999,-6 -0.250236,-14.00118 -1.490235,-21.201175 -0.335998,-1.515189 -0.814493,-2.99506 -1.429687,-4.419922 -0.612404,0.792025 -1.323707,-26.322302 -1.408203,-27.15625 -1.233321,-12.172457 75.458458,3.945177 81.373048,-5.748047 0.73292,-1.201154 4.08732,-23.461154 -7.31443,-37.665296 C 96.322699,10.373144 83.883349,6.9476256 68.464844,6.1972656 66.672623,6.110045 63.876707,5.9215989 61.470703,5.9003906 Z"
     sodipodi:nodetypes="ssscccccccccccsssss" /><path
     d="m109.79 92h-1.35v.3a6.27 6.27 0 0 1 -6.23 5.81c-3 0-5.39-3.53-5.39-5.81v-8a52.05 52.05 0 0 1 -2.42 8.5c-3 8.3-2.58 15.44-3.52 21.53-1.65 12.81-4.71 15.48-4.71 15.48 5.89-2.65 8.12-8.18 8.27-7.59.33 1.26-.61 3.47-.63 5.55a22 22 0 0 0 7.57-9c.52 1.23.55 2.86 1.21 4.1 0 0 8.9-14.46 10-25.8.25-2.64.36-4.81.37-6.66a4.06 4.06 0 0 1 -3.17 1.59z"
     id="path26" /><path
     d="m 98.1,51.84 c 0,0 0,4.35 -0.09,9.89 0,0 -6.873393,9.090444 -5.01433,9.018874 3.86,0 -1.078493,20.456406 2.019295,20.33933 L 96.430903,102.50974 112.59,97.07 112.96,90.41 110.44,65 110.85625,58.417991 109.27,46.57 c -0.30713,-2.330039 -0.74786,-4.640511 -1.32,-6.92 C 104.36,28.85 98.46,21.69 92,17 81.61,9.43 69.76,8 63.28,7.87 56.8,8 45,9.43 34.62,17 c -6.51,4.74 -12.42,11.9 -16,22.65 -0.568176,2.283733 -1.008857,4.597308 -1.32,6.93 L 16.15,65 h 2.13 v -0.3 c -0.161003,-3.094198 2.407402,-5.639253 5.5,-5.45 1.84274,-0.01973 3.587416,0.828533 4.71,2.29 13.652954,-2.140013 26.773391,-6.860791 38.66,-13.91 3,-1.81 -6.53,8 -7.32,9 -0.79,1 14.22,-1.63 34.9,-12.45 3.61,-1.89 3.37,6.57 3.37,7.66 z"
     id="path28"
     sodipodi:nodetypes="cccsccccccccccccccccccscc" /><path
     style="fill:#00a1d8;fill-opacity:1;stroke:none;stroke-width:0.0110485"
     d=""
     id="path1516" /><path
     style="fill:#00a1d8;fill-opacity:1;stroke:none;stroke-width:0.0110485"
     d=""
     id="path1528" /><path
     style="fill:#00a1d8;fill-opacity:1;stroke:none;stroke-width:0.0110485"
     d=""
     id="path1532" /><path
     style="fill:#00a1d8;fill-opacity:1;stroke:none;stroke-width:0.0110485"
     d=""
     id="path1540" /><path
     style="fill:#860788;fill-opacity:1;stroke:none;stroke-width:0.00390625"
     d=""
     id="path1670" /><path
     style="fill:#00a1d8;fill-opacity:1;stroke:none;stroke-width:0.00390625"
     d=""
     id="path1722" /><path
     d="m94.73 44.18c-20.68 10.82-35.73 13.61-34.9 12.46s10.35-10.82 7.32-9a108.83 108.83 0 0 1 -38.66 13.81c-.95 11.81-.92 13.32-.32 19.92.53 5.95 2.61 8.54 3.16 11.74 1.24 7.19.51 15.17 1.49 21.2.65 10.4 5.79 15.25 5.79 15.25 3.18 3 2.47 2.28 6.48 7 7.33 8.66 12.1 12.44 17 12.41 5.14 0 12.23-7.19 14.71-9.41s5.36-5.53 9.4-9.8c0 0 3.06-2.67 4.71-15.48.94-6.09.49-13.23 3.52-21.53 3-8.14 2.71-11.46 2.71-11.46 1-8.54 1-29.48 1-29.48-.04-1.06.2-9.52-3.41-7.63z"
     fill="#d2d2d2"
     id="path14" /><path
     id="rect41794"
     style="fill:#09b56e;fill-opacity:1;stroke-width:8.34764;stroke-linecap:round;stop-color:#000000"
     d="m 112.4895,88.952182 h 3.94527 c -0.2729,23.964028 -7.32399,38.384588 -28.978111,36.032398 l 0.504639,-3.96495 c 15.650632,0.77675 20.811432,-7.47525 22.887442,-17.54686 0.88818,-4.308896 -1.72505,-2.15722 -1.72505,-2.15722 0,0 3.0683,-8.609616 3.36581,-12.363368 z"
     sodipodi:nodetypes="ccccscc" /><path
     id="path28568"
     style="color:#000000;fill:#d91727;fill-opacity:1;stroke-width:0.423103;stroke-linecap:round;-inkscape-stroke:none"
     d="m 62.990079,4.0352219 c -0.658477,-0.0066 -7.960904,-0.05731 -16.597084,0.972744 -9.043715,1.078683 -19.417052,2.80437 -25.687885,8.9115201 -3.469017,3.378462 -5.10617,8.245117 -6.461386,13.787279 -1.355211,5.542176 -2.190608,11.807898 -2.733711,17.755465 -1.086199,11.895161 -0.972531,27.047647 -0.972531,27.047641 0.02289,2.240221 1.857624,4.037646 4.097839,4.014532 2.239695,-0.02326 4.036625,-1.857479 4.013874,-4.09718 0,0 -0.101132,-14.822103 0.940387,-26.227938 0.520761,-5.702911 1.334393,-11.658317 2.534311,-16.565386 1.199918,-4.907063 3.024106,-8.717448 4.241049,-9.902623 3.101072,-3.020132 12.551782,-5.66167 20.988995,-6.668006 8.379854,-0.999488 15.642708,-0.9175 15.741534,-0.916339 0,0 0.03411,1.2e-5 0.0348,0 0.09881,-0.0013 7.361673,-0.08315 15.741533,0.916339 8.437217,1.006336 17.888151,3.647874 20.989226,6.668006 1.21693,1.185175 3.04091,4.99556 4.24083,9.902623 1.19991,4.907069 2.01376,10.862475 2.53453,16.565386 1.04151,11.405835 0.9395,26.227938 0.9395,26.227938 -0.0227,2.239958 1.77459,4.074285 4.01454,4.09718 2.24029,0.0232 4.07516,-1.77423 4.09806,-4.014532 0,0 0.11345,-15.15248 -0.97276,-27.047641 -0.5431,-5.947567 -1.37827,-12.213289 -2.73348,-17.755465 -1.35522,-5.542162 -2.99238,-10.408817 -6.4614,-13.787279 C 99.250029,7.8123359 88.876683,6.0866489 79.832966,5.0079659 71.197451,3.9779829 63.895575,4.0285879 63.236095,4.0352219 c -0.03117,2.26e-4 -0.245534,0 -0.245534,0 z"
     sodipodi:nodetypes="ssssscccsssscssssscccssssscs" /><rect
     style="fill:#285377;fill-opacity:1;stroke:none;stroke-width:8.61195;stroke-linecap:round;stroke-opacity:1;stop-color:#000000"
     id="rect43700"
     width="14.867826"
     height="7.6996317"
     x="79.368034"
     y="119.26608"
     ry="3.8498158" /><rect
     style="fill:#09b56e;fill-opacity:1;stroke-width:6.86733;stroke-linecap:round;stop-color:#000000"
     id="rect433"
     width="19.631126"
     height="41.150879"
     x="5.941287"
     y="65.904121"
     ry="5.5609303" /><path
     id="rect433-0"
     style="fill:#10769e;fill-opacity:1;stroke-width:7.72365;stroke-linecap:round;stop-color:#000000"
     d="m 22.282629,58.861863 c -4.135199,0 -7.464305,3.328886 -7.464305,7.464092 v 40.307105 c 0,4.13521 3.329106,7.46431 7.464305,7.46431 h 3.57156 c 2.753882,0 5.255454,-1.47751 6.549122,-3.68526 -0.0908,-1.86621 -0.09363,-4.2908 -0.265731,-6.93934 -0.18453,-2.83974 -0.549005,-5.962111 -0.972955,-9.706496 -0.08227,-0.72664 0.02471,-1.273633 -0.124667,-1.79271 C 30.042308,88.50684 29.37537,88.160894 28.225272,81.928548 27.448513,77.719308 28.006014,71.598523 28.49,61.45 c 0.924768,-0.142808 1.839488,-0.296637 2.745226,-0.460316 -1.307543,-1.130526 -3.508949,-2.127821 -5.381033,-2.127821 z"
     sodipodi:nodetypes="ssssscssssccss" /><path
     id="rect433-0-9"
     style="fill:#155182;fill-opacity:1;stroke-width:7.72365;stroke-linecap:round;stop-color:#000000"
     d="m 14.818324,70.442593 v 11.485829 l 13.406925,0 c -0.0324,-0.375455 -0.09126,-0.83511 -0.109626,-1.16058 -0.147582,-2.615668 -0.186616,-5.980994 -0.121965,-10.325249 z m 0,21.544351 V 103.47277 H 32.15456 c -0.09259,-2.80853 -0.158304,-6.039662 -0.726863,-9.706496 -0.111195,-0.717129 -0.199969,-1.27547 -0.384446,-1.77933 z"
     sodipodi:nodetypes="cccscccccscc" /><rect
     style="fill:#09b56e;fill-opacity:1;stroke-width:6.86733;stroke-linecap:round;stop-color:#000000"
     id="rect433-01"
     width="19.631126"
     height="41.150879"
     x="-119.72574"
     y="65.904121"
     ry="5.5609303"
     transform="scale(-1,1)" /><path
     id="rect433-0-4"
     style="fill:#10769e;fill-opacity:1;stroke-width:7.72365;stroke-linecap:round;stop-color:#000000"
     d="m 99.812889,58.861863 c -0.606548,0 -1.195104,0.07353 -1.759005,0.208807 -1.04e-4,19.537113 -2.114728,28.192156 -3.562592,32.916274 -1.16923,3.81499 -1.660561,4.94411 -2.14272,8.121766 v 6.52435 c 0,4.13521 3.329106,7.46431 7.464317,7.46431 h 3.571551 c 4.1352,0 7.4643,-3.3291 7.4643,-7.46431 V 66.325955 c 0,-4.135206 -3.3291,-7.464092 -7.4643,-7.464092 z"
     sodipodi:nodetypes="scscsssssss" /><path
     id="rect433-0-9-6"
     style="fill:#155182;fill-opacity:1;stroke-width:7.72365;stroke-linecap:round;stop-color:#000000"
     d="m 97.77727,70.442593 c -0.174892,4.689389 -0.730341,8.43809 -1.08103,11.485829 h 14.1525 V 70.442593 Z m -3.285978,21.544351 c -1.133104,3.55552 -1.675768,5.04433 -2.14272,8.121766 v 3.36406 H 110.84874 V 91.986944 Z"
     sodipodi:nodetypes="ccccccccccc" /></svg>
