<?xml version="1.0" encoding="UTF-8" standalone="no"?>
<svg
   id="png"
   viewBox="0 0 370 110"
   version="1.1"
   sodipodi:docname="title.svg"
   xml:space="preserve"
   width="370"
   height="110"
   inkscape:version="1.2.2 (732a01da63, 2022-12-09)"
   xmlns:inkscape="http://www.inkscape.org/namespaces/inkscape"
   xmlns:sodipodi="http://sodipodi.sourceforge.net/DTD/sodipodi-0.dtd"
   xmlns="http://www.w3.org/2000/svg"
   xmlns:svg="http://www.w3.org/2000/svg"
   xmlns:rdf="http://www.w3.org/1999/02/22-rdf-syntax-ns#"
   xmlns:cc="http://creativecommons.org/ns#"
   xmlns:dc="http://purl.org/dc/elements/1.1/"><sodipodi:namedview
     id="namedview33"
     pagecolor="#ffffff"
     bordercolor="#000000"
     borderopacity="0.25"
     inkscape:showpageshadow="2"
     inkscape:pageopacity="0.0"
     inkscape:pagecheckerboard="0"
     inkscape:deskcolor="#d1d1d1"
     showgrid="false"
     inkscape:zoom="2.4481184"
     inkscape:cx="198.51981"
     inkscape:cy="109.67607"
     inkscape:window-width="1920"
     inkscape:window-height="1001"
     inkscape:window-x="-9"
     inkscape:window-y="-9"
     inkscape:window-maximized="1"
     inkscape:current-layer="png"
     showguides="true" /><defs
     id="defs4"><style
       id="style2">.cls-1{fill:#5a5a5a;}.cls-2{fill:#aaa;}</style></defs><title
     id="title6">info-titre</title><g
     style="fill:none;stroke:none;stroke-linecap:square;stroke-miterlimit:10"
     id="g2447"
     transform="matrix(1.4088104,0,0,1.3017595,-433.78585,-436.75654)"><g
       clip-path="url(#p.0)"
       id="g2434"><path
         id="path2856-3"
         style="fill:#7f7f7f;fill-opacity:1;stroke:none;stroke-width:2.22488;stroke-linecap:square;stroke-miterlimit:10"
         d="m 516.9043,339.45586 c -0.25346,0.004 -0.5011,0.0143 -0.72851,0.01 -1.74609,0.0365 -3.4922,0.0729 -5.23828,0.10937 -0.90894,0.59166 -0.69084,1.82463 -0.60547,2.74219 0.16526,2.17141 0.34722,4.34198 0.44922,6.51758 -0.5007,1.59171 -1.45405,2.97921 -2.20899,4.45312 -0.98896,1.46316 -3.57784,1.29953 -4.30078,-0.33984 -0.98743,-1.66383 -2.33737,-3.39626 -2.07227,-5.45117 0.20333,-2.38196 0.38748,-4.76591 0.5586,-7.15039 -0.46585,-0.97712 -1.71408,-0.83588 -2.61133,-0.81641 -1.8471,0.0276 -3.69385,0.045 -5.54102,0.0684 -0.93696,0.62614 -0.64417,1.90475 -0.5332,2.84375 0.30068,2.77554 0.61969,5.54899 0.95703,8.32031 1.31032,2.91458 3.65814,5.17525 5.25196,7.91993 0.81056,1.22909 1.62021,2.46867 2.23437,3.81054 -0.18033,1.93294 -0.36068,3.86588 -0.54102,5.79883 0.53375,0.91524 1.73948,0.71886 2.63086,0.71094 1.89981,-0.0168 3.79931,-0.0157 5.69922,-0.0254 0.92389,-0.6083 0.62175,-1.8466 0.55274,-2.76758 -0.10575,-1.38887 -0.28828,-2.78137 -0.17578,-4.17578 2.34181,-3.31126 4.68557,-6.62117 7.03125,-9.92969 1.08151,-2.72598 0.77755,-5.73234 1.10742,-8.59766 -0.009,-1.10447 0.2548,-2.26961 0.084,-3.33789 -0.43133,-0.68208 -1.23962,-0.72601 -2,-0.71289 z m -84.88086,0.004 c -0.1423,0.002 -0.28659,0.0178 -0.42773,0.0469 -5.78922,0.007 -11.57956,0.0283 -17.36914,0.041 -0.91181,0.58542 -0.78778,1.83736 -0.5918,2.75781 0.1832,1.31464 0.35546,2.63145 0.60547,3.93555 1.63052,0.53181 3.42263,-0.17597 5.01953,0.52148 0.87705,0.93717 0.65696,2.32177 0.90039,3.48633 0.32651,3.70233 0.2216,7.42435 0.0762,11.13281 -0.2609,1.08268 -1.55611,1.30054 -2.50195,1.33204 -1.02081,0.12712 -2.27354,-0.42696 -3.09766,0.41406 -0.4489,1.02158 -0.23681,2.17331 -0.5039,3.23828 -0.26591,0.85296 -0.43563,2.25352 0.77734,2.39844 0.97413,0.12927 1.95936,-0.032 2.93945,0.0371 5.00951,-0.008 10.01979,-0.0153 15.0293,-0.0234 0.82428,-0.79611 0.32898,-2.01369 0.25977,-2.99219 -0.31917,-1.01846 0.0672,-2.27641 -0.68555,-3.13476 -1.50802,-0.33124 -3.23519,0.46359 -4.58203,-0.54102 -1.07962,-0.97536 -0.86616,-2.57152 -0.91602,-3.88281 -0.0295,-3.69527 0.0549,-7.40328 0.59766,-11.06446 0.85926,-0.97549 2.28865,-0.63028 3.43164,-0.69335 0.87548,0.0866 2.23805,0.1669 2.25,-1.0586 0.18199,-1.38852 0.23751,-2.79196 0.35742,-4.1875 0.36226,-1.14731 -0.57226,-1.77967 -1.56836,-1.76367 z m 14.64844,0.0352 c -0.0955,-0.001 -0.18856,10e-4 -0.27539,0.008 -2.14453,0.0208 -4.28907,0.0417 -6.43359,0.0625 -0.95091,0.58948 -0.71971,1.87588 -0.58594,2.80664 0.79497,7.24139 1.48427,14.58038 0.52148,21.8418 l -0.375,3.96875 c 0.38664,0.91496 1.53894,0.66633 2.32813,0.65234 6.38191,0.11788 12.76696,0.1383 19.15039,0.17187 0.89983,0.34368 2.12391,-0.53998 1.79101,-1.53125 -0.3833,-4.2951 -0.68524,-8.59954 -0.76171,-12.9121 -0.43097,-0.55484 -1.17709,-0.20383 -1.75782,-0.31446 -1.60808,0.009 -3.21615,0.0183 -4.82422,0.0274 -0.49567,1.0408 -0.0833,2.21243 -0.28125,3.30664 -0.0478,1.35514 -0.0871,2.71195 -0.27539,4.05664 -0.85825,0.90435 -2.21617,0.5394 -3.32031,0.60547 -1.08506,-0.0342 -2.18115,0.20655 -3.25586,-0.0332 -0.97754,-0.51618 -0.90935,-1.79003 -0.87305,-2.73437 -0.17205,-6.34242 0.36323,-12.67221 0.79297,-18.99414 -0.0796,-0.7541 -0.89608,-0.97912 -1.56445,-0.98828 z m 77.81055,0.0117 -0.17578,0.0527 c -1.01057,0.48196 -0.82098,1.78303 -0.72071,2.69922 l 0.45899,5.1914 c 0.93086,0.70943 2.1351,0.12321 3.18359,0.30274 0.97912,0.0623 2.46083,-0.4055 2.96094,0.73633 0.4969,1.29399 -0.66647,2.87026 -2.05664,2.76172 -0.96938,0.0628 -1.94259,-0.22041 -2.90821,-0.043 -0.74164,0.66145 -0.68199,2.41106 0.31641,2.70507 1.03352,0.15827 2.06763,-0.14066 3.10352,-0.0801 1.76213,-0.11462 3.79268,-0.84051 4.44922,-2.64063 0.86182,-2.15724 0.70322,-4.52805 0.99414,-6.79492 l 0.32812,-4.05859 c -0.36277,-0.90403 -1.49332,-0.82126 -2.29687,-0.80469 -2.54542,0.002 -5.09128,-0.0203 -7.63672,-0.0274 z m -48.9668,0.0332 c -0.092,-0.001 -0.18081,10e-4 -0.26367,0.008 -2.14648,0.0156 -4.29298,0.0312 -6.43945,0.0469 -0.94688,0.60851 -0.67893,1.89106 -0.57813,2.83007 0.7137,7.20492 1.21441,14.49139 0.35352,21.70703 -0.11099,1.37872 -0.223,2.758 -0.33399,4.13672 0.60194,0.95417 1.88716,0.70443 2.83985,0.70899 6.59115,0.0132 13.18231,0.008 19.77343,-0.0156 0.74281,-0.28408 0.87785,-1.24343 0.6543,-1.92187 l -0.86328,-12.40235 c -0.94766,-0.29062 -1.94334,0.008 -2.91211,-0.0918 -1.03704,0.1405 -2.47814,-0.19937 -3.26758,0.23633 -0.16797,1.05957 -0.005,2.14271 -0.16797,3.20507 -0.0656,1.2535 -0.13765,2.50851 -0.3457,3.74805 -0.92162,1.01139 -2.4257,0.67615 -3.63867,0.70898 -1.15278,-0.0291 -2.37065,0.24997 -3.46094,-0.25585 -0.9716,-0.82713 -0.68589,-2.239 -0.77539,-3.36524 -0.23599,-6.12504 0.37328,-12.23804 0.92773,-18.33008 -0.0555,-0.73477 -0.85804,-0.94578 -1.50195,-0.95312 z m -91.38281,0.004 -0.16016,0.0664 c -0.89357,0.64428 -0.61519,1.89089 -0.51953,2.82422 0.71252,7.46277 1.29975,15.01208 0.33008,22.48047 -0.10205,1.15349 -0.20459,2.30744 -0.30664,3.46094 0.84455,0.91877 2.20054,0.55467 3.29687,0.56054 1.55273,-0.0417 3.10548,-0.0833 4.65821,-0.125 0.81258,-0.87005 0.27702,-2.12063 0.24218,-3.15625 -0.21839,-2.07393 -0.45343,-4.14694 -0.58789,-6.22851 0.53391,-1.24735 2.07953,-1.47573 3.28321,-1.40039 1.82194,-3e-5 3.71569,-0.28402 5.48046,0.26562 1.39303,0.72104 1.92611,2.53511 1.4668,3.97852 l -0.82031,5.76367 c 0.32021,0.99631 1.55785,0.76053 2.36523,0.72461 1.78173,0.007 3.56379,-0.0247 5.34571,-0.0332 0.79906,-0.8641 0.20465,-2.07162 0.16992,-3.08789 -0.34258,-2.75022 -0.67069,-5.50219 -0.98438,-8.25586 -0.45342,-1.44127 -1.81566,-2.44077 -3.26562,-2.71875 -1.40677,-0.62096 -1.3496,-2.90961 -0.002,-3.56445 1.21917,-1.10996 1.18395,-2.90057 1.42968,-4.4082 0.20639,-1.89888 0.0811,-4.12942 -1.42773,-5.50195 -1.74362,-1.52911 -4.21315,-1.53655 -6.4043,-1.57422 -4.52941,-0.0763 -9.05998,-0.0596 -13.58984,-0.0703 z m -7.24414,0.002 c -0.38293,0.01 -0.76858,0.0398 -1.1211,0.01 l -20.63476,0.082 c -0.8852,0.73339 -0.57677,2.01603 -0.38672,2.98829 0.19206,1.14516 0.38411,2.29035 0.57617,3.43554 2.04198,0.45842 4.15984,0.0901 6.21484,0.36133 0.95415,0.13154 1.40511,1.06728 1.40625,1.94531 0.19541,1.95378 0.1364,3.92366 0.17969,5.88477 -0.005,4.52044 -0.44519,9.02512 -0.96094,13.51172 0.0444,1.17454 1.49822,1.37397 2.41797,1.24414 1.8153,-0.0941 3.63247,-0.0544 5.44922,-0.0488 1.21027,-0.26343 0.99498,-1.76442 0.9336,-2.69531 -0.30039,-6.30485 -0.38291,-12.61796 -0.51954,-18.92774 0.51213,-0.99275 1.80351,-0.98078 2.76563,-0.9082 1.56055,0.0137 3.1211,0.0274 4.68164,0.041 0.79073,-0.98506 0.48535,-2.3263 0.67773,-3.48633 0.0125,-0.97739 0.26197,-1.96412 0.0508,-2.93555 -0.46037,-0.47757 -1.09226,-0.51849 -1.73047,-0.50195 z m 181.05273,0.0586 c -0.20688,0.006 -0.41369,0.0175 -0.61523,0.0254 -3.9653,-0.0133 -7.94007,-0.0899 -11.90039,0.1582 -1.8391,0.13196 -3.67197,0.94901 -4.76953,2.47071 -0.80809,1.00304 -1.04339,2.31547 -0.98243,3.57226 0.0145,2.24081 0.3886,4.46088 0.63868,6.68164 0.27405,1.49805 1.34702,2.90944 2.87304,3.27539 2.8886,1.05809 6.03008,0.92648 8.99414,1.64649 1.01251,0.23628 1.74248,1.1835 1.74219,2.21875 0.0977,1.41226 -1.02394,3.04201 -2.55859,2.875 -3.3198,0.004 -6.6392,0.01 -9.95899,0.0137 -0.97078,-0.4457 -2.24627,0.60556 -1.875,1.64453 -0.0399,1.3284 -0.39026,2.65032 -0.3164,3.97461 0.31792,0.94709 1.52937,0.90041 2.34179,0.78711 4.79043,-0.0884 9.59645,0.0788 14.37305,-0.3418 2.41639,-0.41239 4.68756,-2.4978 4.65039,-5.06054 0.0596,-2.48015 -0.31847,-4.9389 -0.53906,-7.40235 -0.22714,-1.41902 -1.22301,-2.7655 -2.65039,-3.13867 -2.83255,-1.17803 -5.98045,-1.0811 -8.89258,-1.94726 -1.07187,-0.37584 -1.80793,-1.53816 -1.53906,-2.66993 0.20155,-1.24113 1.39021,-2.29853 2.68164,-2.09765 3.16173,-0.0677 6.32264,-0.13543 9.48437,-0.20313 0.59345,-0.90585 0.35951,-2.04108 0.57422,-3.05078 0.0176,-1.01637 0.50318,-2.09635 0.0293,-3.07226 -0.53705,-0.34158 -1.16451,-0.37663 -1.78516,-0.35938 z m -164.47851,6.25 c 0.12963,7.9e-4 0.259,0.006 0.38671,0.0117 1.35808,0.0115 2.97276,-0.16363 4.01172,0.90039 1.05676,1.41382 1.26149,3.3276 0.90821,5.01563 -0.49308,1.39794 -2.0822,2.2955 -3.53516,2.00976 -1.19379,-0.0316 -2.62285,0.295 -3.57422,-0.63086 -1.02007,-1.18619 -0.52457,-2.84211 -0.39062,-4.23633 0.19122,-0.97041 -4e-5,-2.37258 1.05859,-2.86718 0.35452,-0.16926 0.74585,-0.20548 1.13477,-0.20313 z m -34.46289,26.25 c -1.36014,0 -2.45508,1.09495 -2.45508,2.45508 0,1.36013 1.09494,2.45508 2.45508,2.45508 h 199.1289 c 1.36013,0 2.45508,-1.09495 2.45508,-2.45508 0,-1.36013 -1.09495,-2.45508 -2.45508,-2.45508 z m 80.99218,7.99805 c -0.11445,-0.002 -0.22606,-7.1e-4 -0.33203,0.004 -2.00896,0.0663 -4.02109,0.0451 -6.03125,0.0781 -0.90271,0.43033 -0.94549,1.57793 -0.85547,2.44141 0.38118,5.55891 0.77183,11.14913 0.25391,16.71289 0.0255,1.00125 -0.0766,2.24886 -1.03516,2.8125 -1.10017,0.62504 -2.40297,0.42852 -3.60937,0.41406 -0.94053,-0.0129 -2.06822,-0.15167 -2.49219,-1.13477 -0.64598,-1.16122 -0.3001,-2.5216 -0.35352,-3.77929 0.0891,-5.47417 0.1785,-10.94772 0.26758,-16.42188 -0.23473,-1.14718 -1.64735,-1.17394 -2.58008,-1.10351 -1.93477,0.0178 -3.86991,0.0349 -5.80468,0.0527 -1.14717,0.36403 -0.9981,1.79539 -0.90821,2.74609 0.3193,5.08392 0.68244,10.18473 0.32813,15.27735 -0.099,2.05216 -0.26056,4.11266 -0.15039,6.16601 0.27406,2.16033 1.82587,4.09828 3.88086,4.82617 2.97956,1.32655 6.31393,1.4018 9.52148,1.39063 2.86749,-0.0671 5.81661,-0.41702 8.41211,-1.71094 1.69346,-0.93389 3.07863,-2.66603 3.1211,-4.66211 0.24551,-2.34773 -0.2764,-4.68059 -0.35157,-7.02343 -0.33047,-3.89146 -0.0685,-7.79856 0.29102,-11.67774 0.11314,-1.42584 0.22669,-2.8515 0.33984,-4.27734 -0.16767,-0.8944 -1.11094,-1.1145 -1.91211,-1.13086 z m -29.20312,0.01 c -0.15148,-0.005 -0.30316,0.002 -0.44922,0.0176 -7.194,0.0143 -14.38803,0.0286 -21.58203,0.043 -0.87251,0.24092 -1.10964,1.27524 -1.02539,2.06641 0.19155,1.47934 0.38087,2.96238 0.56836,4.44336 0.49401,0.94007 1.70895,0.71061 2.58789,0.72265 1.50055,0.0238 3.0023,0.031 4.5,0.13672 0.81991,0.80202 0.62482,2.04346 0.64453,3.08008 -0.0438,5.92295 -0.46579,11.83379 -0.81641,17.74414 -0.0125,1.10707 1.0636,1.83544 2.09961,1.67969 2.23208,-0.013 4.46454,-0.0435 6.69727,-0.0742 1.06512,-0.61427 0.98081,-1.99936 0.91797,-3.06055 -0.18134,-5.6894 -0.51294,-11.37606 -0.4668,-17.07031 -0.28318,-0.99122 0.39909,-2.36193 1.57617,-2.11328 1.08213,0.01 2.16744,0.0738 3.24609,-0.0312 0.94677,-0.065 2.43929,0.33381 2.80469,-0.85547 0.22075,-1.06167 0.1469,-2.16426 0.26367,-3.24219 -0.0616,-0.99723 0.44879,-2.22627 -0.32031,-3.0332 -0.33428,-0.31234 -0.79167,-0.43735 -1.24609,-0.45313 z m 60.20703,0.0527 c -0.1128,0.004 -0.22309,0.0147 -0.32813,0.0312 -1.95637,0.0189 -3.91276,0.0378 -5.86914,0.0566 -0.85232,0.50418 -0.82287,1.63763 -0.6875,2.49414 0.31238,2.61204 0.62511,5.22385 0.86524,7.84375 -0.2431,0.84786 -1.37929,0.92883 -1.99414,0.44922 -0.66113,-0.65206 -1.0894,-1.52193 -1.70117,-2.23242 -1.92751,-2.59358 -3.82431,-5.21126 -5.85157,-7.72852 -1.06249,-1.05971 -2.71467,-0.89644 -4.08593,-0.90039 -1.02161,0.016 -2.0466,9e-5 -3.0625,0.12695 -0.81892,0.66902 -0.6424,1.84359 -0.53516,2.76953 0.54078,5.23879 1.09772,10.54036 0.42969,15.79493 -0.28142,3.27125 -0.4679,6.54946 -0.67188,9.82617 0.1475,1.13199 1.48126,1.48353 2.45313,1.36914 1.95132,-0.031 3.90218,-0.0627 5.85351,-0.0937 1.01579,-0.53339 1.01013,-1.85219 0.89649,-2.84375 -0.31889,-4.10971 -0.63041,-8.21934 -0.93555,-12.33008 0.33934,-1.17774 2.06313,-0.84817 2.44336,0.14648 1.7806,2.42097 3.43381,4.93194 5.09766,7.4336 0.85169,0.78798 0.67361,2.05356 0.63281,3.0957 -0.015,1.20639 -0.0299,2.41276 -0.0449,3.61914 0.54615,1.03509 1.8769,0.96535 2.88086,0.94336 1.78308,-0.0226 3.56652,-0.0459 5.3496,-0.0684 0.93567,-0.48212 1.00613,-1.67833 0.97461,-2.60547 -0.061,-8.70914 -0.1265,-17.41784 -0.18945,-26.12695 -0.21061,-0.82259 -1.13032,-1.1017 -1.91992,-1.07031 z m 27.6875,0.0117 -0.18359,0.002 -0.16407,0.002 c -6.14127,0.009 -12.28255,0.0182 -18.42383,0.0274 -1.03013,0.2907 -1.0862,1.57134 -0.92773,2.44531 0.51955,4.69076 0.91276,9.42472 0.53906,14.14258 -0.26587,3.60028 -0.54893,7.19895 -0.69726,10.80664 -0.29896,0.91427 0.11506,2.16665 1.13086,2.40039 6.58977,0.0385 13.17969,0.0118 19.76953,0.0176 1.23967,-0.14968 1.46243,-1.64729 1.32422,-2.66016 -0.084,-1.22932 -0.11639,-2.46117 -0.16602,-3.69141 -0.008,-0.68855 -0.52983,-1.25909 -1.22851,-1.26953 -1.26921,-0.13365 -2.5501,-0.0186 -3.82422,-0.0605 l -7.76758,-0.008 c -0.37805,-1.03665 -0.30247,-2.16081 -0.50781,-3.23242 -0.0242,-1.23035 1.53335,-1.17974 2.40039,-1.0918 1.95825,0.002 3.91683,-0.009 5.875,-0.0273 0.70984,0.30083 1.40153,-0.55445 1.13086,-1.21875 -0.0593,-1.32486 -0.28092,-2.64625 -0.19336,-3.97461 -0.10281,-0.60222 -0.83159,-0.74481 -1.33985,-0.66601 -2.11265,0.0184 -4.22527,-0.0137 -6.33789,-0.0234 -0.95353,0.36056 -2.14753,-0.56028 -1.87109,-1.58985 0.1065,-1.00812 -0.18109,-2.18784 0.55273,-3.01953 0.92647,-0.55745 2.05072,-0.14669 3.06641,-0.27929 2.99166,-0.007 5.98296,-0.0138 8.97461,0.004 0.73369,-0.33881 0.67028,-1.27523 0.73242,-1.95117 0.10411,-1.39584 0.20862,-2.79166 0.3125,-4.1875 -0.28367,-0.89045 -1.39147,-0.92406 -2.17578,-0.89648 z m 26.03125,0.0215 c -0.37314,0.006 -0.75067,0.0332 -1.09961,0.01 -1.803,0.005 -3.6052,0.0102 -5.4082,0.0156 -2.16884,0.02 -4.33681,0.0746 -6.50391,0.16406 -1.93791,0.37634 -3.96233,1.2301 -5.04492,2.97071 -1.00806,2.10758 -0.61958,4.5067 -0.49024,6.75 0.11155,1.71113 0.12925,3.461 0.6875,5.10156 0.98536,1.69204 2.95928,2.43623 4.78907,2.79102 2.22808,0.37752 4.4595,0.73609 6.68359,1.13867 1.27513,0.39979 1.36261,2.49867 0.12109,2.99804 -1.24167,0.47132 -2.57929,0.10541 -3.86523,0.22071 -2.69622,0.003 -5.39166,0.005 -8.08789,0.008 -1.11344,0.2414 -1.36806,1.56957 -1.29102,2.54102 0.01,1.28273 -0.003,2.56497 -0.0156,3.84765 0.27762,1.12933 1.63084,1.41006 2.63672,1.33203 4.57896,-0.10651 9.16252,-0.0416 13.73828,-0.26953 2.21113,-0.24588 4.50131,-1.20366 5.75,-3.13086 1.03155,-1.84785 0.80525,-4.05924 0.51758,-6.07031 -0.29956,-1.88618 -0.44202,-3.88952 -1.4668,-5.55078 -1.23075,-1.61836 -3.32874,-2.11278 -5.22656,-2.45703 -2.02532,-0.4151 -4.07694,-0.68603 -6.09571,-1.13477 -1.49423,-0.55261 -1.81472,-2.92009 -0.45703,-3.79687 1.05394,-0.6678 2.34651,-0.38333 3.52149,-0.48243 2.53152,-0.0553 5.06223,-0.1107 7.59375,-0.16601 0.72504,-0.90663 0.46496,-2.13678 0.69726,-3.19727 -0.0724,-1.04699 0.59954,-2.16388 0.0234,-3.15039 -0.47144,-0.44247 -1.08514,-0.49201 -1.70703,-0.48242 z m -133.20313,32.96484 c -1.36013,0 -2.45507,1.09495 -2.45507,2.45508 0,1.36013 1.09494,2.45508 2.45507,2.45508 h 134.10743 c 1.36013,0 2.45507,-1.09495 2.45507,-2.45508 0,-1.36013 -1.09494,-2.45508 -2.45507,-2.45508 z" /><path
         style="fill:#000000;stroke-width:2.22488"
         d="m 557.32617,337.62891 c -3.9653,-0.0133 -7.94006,-0.0899 -11.90039,0.1582 -1.8391,0.13195 -3.67295,0.9497 -4.77052,2.47141 -0.80809,1.00303 -1.04249,2.31535 -0.98153,3.57215 0.0145,2.24081 0.38895,4.46107 0.63903,6.68184 0.27406,1.49805 1.34647,2.90921 2.87249,3.27517 2.8886,1.05809 6.03085,0.92631 8.99492,1.64632 1.01251,0.23628 1.742,1.18309 1.74171,2.21834 0.0977,1.41226 -1.02353,3.04273 -2.55819,2.87572 -3.3198,0.004 -6.6396,0.009 -9.95939,0.013 -0.97078,-0.4457 -2.24627,0.60556 -1.875,1.64453 -0.0399,1.3284 -0.39005,2.65112 -0.31619,3.97541 0.31792,0.94709 1.52916,0.89961 2.34158,0.78631 4.79043,-0.0884 9.59637,0.078 14.37297,-0.34262 2.41639,-0.41239 4.6881,-2.49726 4.65093,-5.06001 0.0596,-2.48015 -0.3186,-4.93838 -0.53919,-7.40183 -0.22714,-1.41903 -1.2232,-2.76516 -2.65058,-3.13833 -2.83255,-1.17803 -5.98008,-1.08202 -8.89221,-1.94818 -1.07187,-0.37584 -1.80845,-1.53781 -1.53958,-2.66958 0.20155,-1.24114 1.38938,-2.29855 2.68081,-2.09767 3.16174,-0.0677 6.32347,-0.13541 9.48521,-0.20311 0.59345,-0.90585 0.35875,-2.04211 0.57346,-3.05181 0.0176,-1.01637 0.50388,-2.09533 0.03,-3.07124 -0.71607,-0.45544 -1.59422,-0.36557 -2.40039,-0.33398 z"
         id="path2856" /><path
         style="fill:#000000;stroke-width:2.22488"
         d="m 524.30664,337.55859 c -1.01057,0.48196 -0.82051,1.78349 -0.72024,2.69968 0.15284,1.73032 0.30568,3.46063 0.45852,5.19095 0.93086,0.70943 2.13511,0.12319 3.1836,0.30273 0.97912,0.0623 2.46157,-0.40504 2.96168,0.73679 0.4969,1.29399 -0.66805,2.86914 -2.05822,2.7606 -0.96938,0.0628 -1.94175,-0.21974 -2.90737,-0.0423 -0.74165,0.66145 -0.68199,2.41106 0.31641,2.70508 1.03352,0.15827 2.068,-0.13999 3.10389,-0.0794 1.76214,-0.11462 3.79137,-0.84036 4.44791,-2.64048 0.86183,-2.15724 0.70351,-4.5286 0.99443,-6.79547 0.10959,-1.35295 0.21918,-2.70589 0.32877,-4.05884 -0.36277,-0.90403 -1.49368,-0.82129 -2.29724,-0.80472 -2.54542,0.002 -5.09091,-0.0202 -7.63636,-0.0273 l -0.1751,0.0525 z"
         id="path2854" /><path
         style="fill:#000000;stroke-width:2.22488"
         d="m 516.17578,337.46484 c -1.74609,0.0365 -3.49219,0.0729 -5.23828,0.10938 -0.90894,0.59166 -0.69084,1.82463 -0.60547,2.74219 0.16526,2.17141 0.34722,4.34197 0.44922,6.51757 -0.5007,1.59171 -1.45404,2.97921 -2.20898,4.45313 -0.98896,1.46316 -3.57785,1.29953 -4.30079,-0.33984 -0.98743,-1.66383 -2.33793,-3.39681 -2.07283,-5.45172 0.20333,-2.38196 0.38804,-4.76537 0.55916,-7.14985 -0.46585,-0.97712 -1.71353,-0.83522 -2.61078,-0.81575 -1.8471,0.0276 -3.69439,0.0443 -5.54156,0.0677 -0.93696,0.62614 -0.64417,1.90475 -0.5332,2.84375 0.30068,2.77554 0.61969,5.54898 0.95703,8.32031 1.31032,2.91458 3.65797,5.17595 5.25179,7.92063 0.81057,1.22909 1.62037,2.46797 2.23453,3.80984 -0.18033,1.93294 -0.36067,3.86588 -0.54101,5.79883 0.53375,0.91524 1.73893,0.71802 2.63031,0.7101 1.89981,-0.0168 3.79986,-0.0149 5.69977,-0.0246 0.92389,-0.6083 0.62191,-1.8458 0.5529,-2.76678 -0.10575,-1.38887 -0.28845,-2.78217 -0.17595,-4.17658 2.34182,-3.31126 4.68557,-6.62116 7.03125,-9.92968 1.08152,-2.72598 0.77755,-5.73325 1.10742,-8.59857 -0.009,-1.10448 0.25432,-2.26961 0.0835,-3.33789 -0.57511,-0.90945 -1.81833,-0.6842 -2.72799,-0.70222 z"
         id="path2852" /><path
         style="fill:#000000;stroke-width:2.22488"
         d="m 475.25195,337.54688 c -2.14648,0.0156 -4.29297,0.0312 -6.43945,0.0469 -0.94688,0.60851 -0.67892,1.89108 -0.57812,2.83008 0.7137,7.20492 1.21341,14.49196 0.35251,21.70761 -0.11099,1.37871 -0.22199,2.75742 -0.33298,4.13614 0.60194,0.95418 1.88715,0.70442 2.83984,0.70898 6.59116,0.0132 13.18231,0.008 19.77344,-0.0156 0.74281,-0.28408 0.87784,-1.24345 0.65429,-1.92188 -0.28776,-4.13411 -0.57552,-8.26823 -0.86328,-12.40234 -0.94766,-0.29062 -1.94366,0.008 -2.91243,-0.0913 -1.03704,0.1405 -2.4776,-0.20011 -3.26704,0.23559 -0.16797,1.05959 -0.005,2.14272 -0.16813,3.20508 -0.0656,1.25349 -0.13771,2.50875 -0.34576,3.7483 -0.92162,1.01139 -2.42488,0.6769 -3.63785,0.70975 -1.15278,-0.0291 -2.37147,0.24919 -3.46176,-0.25663 -0.9716,-0.82713 -0.6866,-2.24009 -0.7761,-3.36634 -0.23599,-6.12505 0.374,-12.23692 0.92845,-18.32897 -0.0634,-0.83974 -1.1027,-0.99621 -1.76563,-0.94531 z"
         id="path2850" /><path
         style="fill:#000000;stroke-width:2.22488"
         d="m 446.39648,337.50195 c -2.14453,0.0208 -4.28906,0.0417 -6.43359,0.0625 -0.95091,0.58948 -0.71971,1.87587 -0.58594,2.80664 0.79497,7.2414 1.48464,14.58074 0.52185,21.84215 -0.12512,1.3228 -0.25024,2.6456 -0.37536,3.9684 0.38664,0.91497 1.53908,0.66689 2.32827,0.6529 6.38192,0.11788 12.76681,0.13774 19.15024,0.17132 0.89983,0.34368 2.12392,-0.53999 1.79102,-1.53125 -0.3833,-4.29512 -0.68524,-8.59953 -0.76172,-12.91211 -0.43097,-0.55483 -1.17708,-0.20382 -1.75781,-0.31445 -1.60808,0.009 -3.21615,0.0182 -4.82422,0.0273 -0.49567,1.0408 -0.0825,2.21151 -0.28049,3.30572 -0.0478,1.35514 -0.0879,2.71287 -0.27615,4.05756 -0.85825,0.90435 -2.21534,0.53915 -3.31948,0.60522 -1.08506,-0.0342 -2.18198,0.20675 -3.25669,-0.033 -0.97754,-0.51619 -0.90935,-1.79004 -0.87305,-2.73438 -0.17205,-6.34243 0.36323,-12.67221 0.79297,-18.99414 -0.091,-0.86184 -1.14523,-1.0334 -1.83985,-0.98047 z"
         id="path2848" /><path
         style="fill:#000000;stroke-width:2.22488"
         d="m 414.22656,337.54688 c -0.91181,0.58543 -0.78777,1.83736 -0.59179,2.75781 0.1832,1.31463 0.35545,2.63145 0.60546,3.93554 1.63052,0.53182 3.42264,-0.17598 5.01954,0.52149 0.87705,0.93717 0.65715,2.32241 0.90058,3.48697 0.32651,3.70233 0.22143,7.4237 0.076,11.13217 -0.2609,1.08268 -1.55611,1.30053 -2.50195,1.33203 -1.02081,0.12712 -2.27354,-0.42696 -3.09766,0.41406 -0.4489,1.02158 -0.23682,2.17331 -0.50391,3.23828 -0.26591,0.85296 -0.43562,2.25352 0.77735,2.39844 0.97413,0.12927 1.96011,-0.0312 2.94021,0.0379 5.00951,-0.008 10.01902,-0.0161 15.02854,-0.0242 0.82428,-0.79611 0.32897,-2.01368 0.25976,-2.99218 -0.31917,-1.01846 0.0672,-2.27642 -0.68555,-3.13477 -1.50802,-0.33124 -3.23519,0.4636 -4.58203,-0.54101 -1.07962,-0.97536 -0.86615,-2.57074 -0.91601,-3.88203 -0.0295,-3.69527 0.0549,-7.40406 0.59765,-11.06524 0.85926,-0.9755 2.28774,-0.6312 3.43073,-0.69427 0.87548,0.0866 2.23897,0.16782 2.25092,-1.05768 0.18199,-1.38852 0.23825,-2.79307 0.35816,-4.18861 0.41401,-1.31121 -0.8677,-1.94839 -1.99684,-1.71569 -5.78922,0.007 -11.57955,0.0283 -17.36914,0.041 z"
         id="path2846" /><path
         id="path2844"
         style="fill:#000000;stroke-width:2.22488"
         d="m 383.97266,337.60938 c -0.89357,0.64429 -0.6152,1.89088 -0.51954,2.82421 0.71252,7.46278 1.29927,15.01253 0.3296,22.48093 -0.10205,1.15349 -0.20411,2.30699 -0.30616,3.46048 0.84455,0.91879 2.20055,0.55467 3.29688,0.56055 1.55273,-0.0417 3.10547,-0.0833 4.6582,-0.125 0.81259,-0.87005 0.27737,-2.12079 0.24253,-3.15641 -0.21839,-2.07393 -0.45377,-4.14678 -0.58823,-6.22836 0.53391,-1.24735 2.07866,-1.47505 3.28234,-1.39971 1.82195,-3e-5 3.71599,-0.28497 5.48077,0.26467 1.39303,0.72104 1.92667,2.53538 1.46736,3.97879 -0.27344,1.92123 -0.54688,3.84245 -0.82032,5.76367 0.32021,0.99631 1.5577,0.76028 2.36508,0.72436 1.78173,0.007 3.56394,-0.0245 5.34586,-0.033 0.79906,-0.86411 0.20465,-2.07162 0.16992,-3.08789 -0.34258,-2.75023 -0.67068,-5.50219 -0.98437,-8.25586 -0.45342,-1.44128 -1.81567,-2.44077 -3.26563,-2.71875 -1.40677,-0.62097 -1.34965,-2.90961 -0.002,-3.56445 1.21918,-1.10996 1.18398,-2.90102 1.42971,-4.40865 0.20639,-1.89888 0.0803,-4.12832 -1.42856,-5.50086 -1.74362,-1.52911 -4.21269,-1.53821 -6.40384,-1.57588 -4.52942,-0.0763 -9.05963,-0.0586 -13.5895,-0.0693 z m 9.87695,6.25585 c 1.35808,0.0115 2.97276,-0.16362 4.01172,0.90039 1.05676,1.41383 1.2619,3.32707 0.90862,5.0151 -0.49308,1.39794 -2.08261,2.29604 -3.53557,2.0103 -1.19379,-0.0316 -2.62285,0.29501 -3.57422,-0.63086 -1.02007,-1.18618 -0.52421,-2.84253 -0.39026,-4.23674 0.19122,-0.97041 -2.1e-4,-2.37234 1.05842,-2.86695 0.47269,-0.22567 1.01045,-0.21434 1.52129,-0.19124 z" /><path
         style="fill:#000000;stroke-width:2.22488"
         d="m 355.13281,337.63672 c -0.8852,0.73339 -0.57677,2.01602 -0.38672,2.98828 0.19206,1.14518 0.38412,2.29036 0.57618,3.43555 2.04198,0.45841 4.15972,0.0903 6.21473,0.36156 0.95415,0.13154 1.40522,1.06705 1.40636,1.94508 0.19541,1.95377 0.13662,3.9232 0.17991,5.88432 -0.005,4.52045 -0.44541,9.02556 -0.96116,13.51216 0.0444,1.17454 1.49733,1.37455 2.41708,1.24472 1.8153,-0.0941 3.63336,-0.055 5.45011,-0.0494 1.21027,-0.26343 0.99553,-1.76548 0.93415,-2.69638 -0.30039,-6.30485 -0.38346,-12.61687 -0.52009,-18.92666 0.51213,-0.99275 1.8035,-0.98079 2.76562,-0.90821 1.56055,0.0137 3.1211,0.0274 4.68164,0.041 0.79073,-0.98506 0.4847,-2.32724 0.67708,-3.48727 0.0125,-0.97739 0.26258,-1.96316 0.0514,-2.9346 -0.73659,-0.76411 -1.91069,-0.41172 -2.85074,-0.49176 -6.87853,0.0272 -13.75706,0.0544 -20.63559,0.0816 z"
         id="path2430" /><path
         style="fill:#000000;stroke-width:2.22488"
         d="m 518.20703,378.22266 c -2.16884,0.02 -4.33681,0.0746 -6.50391,0.16406 -1.93791,0.37633 -3.96233,1.23009 -5.04492,2.9707 -1.00806,2.10758 -0.61957,4.5067 -0.49023,6.75 0.11155,1.71113 0.12925,3.461 0.6875,5.10156 0.98536,1.69204 2.95877,2.43614 4.78856,2.79094 2.22809,0.37751 4.46,0.73618 6.68409,1.13875 1.27513,0.39979 1.36262,2.49867 0.1211,2.99805 -1.24167,0.47132 -2.57851,0.10556 -3.86445,0.22087 -2.69622,0.003 -5.39245,0.005 -8.08868,0.008 -1.11344,0.24141 -1.36854,1.56917 -1.2915,2.54061 0.01,1.28274 -0.002,2.5654 -0.0151,3.84807 0.27762,1.12933 1.63117,1.40963 2.63705,1.33161 4.57897,-0.10652 9.16219,-0.0412 13.73795,-0.26911 2.21113,-0.24587 4.50131,-1.20365 5.75,-3.13086 1.03155,-1.84785 0.80525,-4.05925 0.51758,-6.07032 -0.29956,-1.88618 -0.44202,-3.88952 -1.4668,-5.55078 -1.23075,-1.61836 -3.3282,-2.11249 -5.22603,-2.45674 -2.02532,-0.4151 -4.07746,-0.68631 -6.09623,-1.13505 -1.49424,-0.55261 -1.81472,-2.9201 -0.45703,-3.79688 1.05394,-0.6678 2.34567,-0.38341 3.52065,-0.48251 2.53153,-0.0553 5.06306,-0.11062 7.59458,-0.16593 0.72504,-0.90663 0.46497,-2.13677 0.69727,-3.19726 -0.0724,-1.04699 0.5995,-2.16388 0.0234,-3.15039 -0.75431,-0.70795 -1.87533,-0.41066 -2.80583,-0.47327 -1.803,0.005 -3.60601,0.0108 -5.40902,0.0162 z"
         id="path2867" /><path
         style="fill:#000000;stroke-width:2.22488"
         d="m 498.33594,378.17969 c -6.14128,0.009 -12.28255,0.0182 -18.42383,0.0273 -1.03014,0.2907 -1.08697,1.57179 -0.9285,2.44576 0.51955,4.69076 0.91421,9.4233 0.54051,14.14117 -0.26587,3.60029 -0.54962,7.1999 -0.69795,10.8076 -0.29896,0.91427 0.11506,2.16665 1.13086,2.40039 6.58978,0.0385 13.17969,0.0118 19.76953,0.0176 1.23967,-0.14969 1.46248,-1.64767 1.32427,-2.66054 -0.084,-1.22931 -0.11643,-2.46077 -0.16606,-3.69102 -0.008,-0.68855 -0.52983,-1.25908 -1.22852,-1.26953 -1.26921,-0.13364 -2.54927,-0.0179 -3.8234,-0.0598 -2.58947,-0.003 -5.17893,-0.006 -7.7684,-0.009 -0.37805,-1.03665 -0.30247,-2.1608 -0.50781,-3.23242 -0.0242,-1.23034 1.53373,-1.18021 2.40077,-1.09226 1.95826,0.002 3.91645,-0.009 5.87462,-0.0269 0.70984,0.30083 1.40153,-0.55446 1.13086,-1.21875 -0.0593,-1.32487 -0.28092,-2.64625 -0.19336,-3.97461 -0.10281,-0.60223 -0.83158,-0.74483 -1.33984,-0.66602 -2.11265,0.0184 -4.22527,-0.0137 -6.33789,-0.0234 -0.95353,0.36056 -2.14754,-0.56026 -1.8711,-1.58984 0.1065,-1.00813 -0.18108,-2.18784 0.55274,-3.01953 0.92647,-0.55745 2.05031,-0.14587 3.066,-0.27847 2.99166,-0.007 5.98336,-0.0147 8.97501,0.003 0.73369,-0.33881 0.67029,-1.27523 0.73243,-1.95117 0.10411,-1.39584 0.20862,-2.79166 0.3125,-4.1875 -0.28367,-0.89045 -1.39184,-0.92302 -2.17615,-0.89544 l -0.1828,0.002 z"
         id="path2865" /><path
         style="fill:#000000;stroke-width:2.22488"
         d="m 451.34375,378.17773 c -1.02161,0.016 -2.04659,9e-5 -3.0625,0.12696 -0.81892,0.66901 -0.64176,1.84386 -0.53452,2.76982 0.54078,5.23879 1.09708,10.54006 0.42905,15.79463 -0.28142,3.27126 -0.46789,6.54946 -0.67187,9.82617 0.1475,1.13199 1.48078,1.48265 2.45265,1.36826 1.95133,-0.031 3.90266,-0.0619 5.85399,-0.0929 1.01579,-0.5334 1.00942,-1.85149 0.89578,-2.84305 -0.31889,-4.10971 -0.62971,-8.22003 -0.93485,-12.33077 0.33934,-1.17775 2.06397,-0.84834 2.4442,0.14631 1.7806,2.42097 3.43297,4.9321 5.09682,7.43376 0.8517,0.78798 0.67361,2.05356 0.63281,3.09571 -0.015,1.20638 -0.0299,2.41276 -0.0449,3.61914 0.54615,1.03509 1.87725,0.96462 2.88121,0.94264 1.78309,-0.0226 3.56617,-0.0451 5.34926,-0.0676 0.93567,-0.48212 1.00673,-1.67792 0.97521,-2.60506 -0.061,-8.70914 -0.1271,-17.41824 -0.19005,-26.12736 -0.2407,-0.94011 -1.40776,-1.1711 -2.24805,-1.03907 -1.95638,0.0189 -3.91276,0.0378 -5.86914,0.0566 -0.85232,0.50418 -0.82362,1.63704 -0.68825,2.49355 0.31238,2.61204 0.62585,5.22444 0.86598,7.84434 -0.2431,0.84786 -1.37929,0.92883 -1.99414,0.44922 -0.66113,-0.65206 -1.08927,-1.52144 -1.70105,-2.23193 -1.92751,-2.59358 -3.82442,-5.21175 -5.85168,-7.72901 -1.06249,-1.05971 -2.71467,-0.89644 -4.08594,-0.90039 z"
         id="path2863" /><path
         style="fill:#000000;stroke-width:2.22488"
         d="m 439.66016,378.10547 c -2.00896,0.0663 -4.02109,0.0451 -6.03125,0.0781 -0.90271,0.43033 -0.94471,1.57738 -0.85469,2.44085 0.38118,5.55892 0.77104,11.14969 0.25312,16.71345 0.0255,1.00125 -0.0766,2.24886 -1.03515,2.8125 -1.10017,0.62504 -2.40364,0.42865 -3.61004,0.41419 -0.94053,-0.0129 -2.06682,-0.15125 -2.49079,-1.13435 -0.64598,-1.16122 -0.30047,-2.52151 -0.35389,-3.77921 0.0891,-5.47417 0.17814,-10.94834 0.26722,-16.4225 -0.23473,-1.14718 -1.64771,-1.1745 -2.58044,-1.10407 -1.93478,0.0178 -3.86955,0.0355 -5.80433,0.0533 -1.14717,0.36403 -0.99894,1.79587 -0.90905,2.74657 0.3193,5.08392 0.68406,10.18495 0.32975,15.27757 -0.099,2.05216 -0.26222,4.11147 -0.15205,6.16483 0.27406,2.16033 1.82625,4.09784 3.88124,4.82574 2.97957,1.32655 6.31468,1.40278 9.52224,1.39161 2.86749,-0.0671 5.81699,-0.41717 8.41249,-1.71109 1.69346,-0.93389 3.07775,-2.66646 3.12022,-4.66254 0.24552,-2.34774 -0.27706,-4.6795 -0.35223,-7.02235 -0.33047,-3.89146 -0.0672,-7.79895 0.29234,-11.67813 0.11314,-1.42584 0.22628,-2.85168 0.33943,-4.27752 -0.19163,-1.02217 -1.39635,-1.16388 -2.24414,-1.12695 z"
         id="path2861" /><path
         style="fill:#000000;stroke-width:2.22488"
         d="m 410.33984,378.12891 c -7.19401,0.0143 -14.38802,0.0286 -21.58203,0.043 -0.87251,0.24092 -1.11061,1.27597 -1.02636,2.06713 0.19155,1.47934 0.38184,2.96166 0.56933,4.44263 0.49401,0.94007 1.70895,0.71063 2.58789,0.72266 1.50055,0.0238 3.0023,0.031 4.5,0.13672 0.81991,0.80202 0.62482,2.04345 0.64453,3.08007 -0.0438,5.92296 -0.46578,11.83378 -0.8164,17.74414 -0.0125,1.10707 1.0626,1.83547 2.09861,1.67972 2.23208,-0.013 4.46553,-0.0435 6.69826,-0.0742 1.06512,-0.61427 0.98066,-1.99859 0.91782,-3.05978 -0.18134,-5.68941 -0.51279,-11.37682 -0.46665,-17.07108 -0.28318,-0.99121 0.39868,-2.36158 1.57576,-2.11293 1.08213,0.01 2.16706,0.0725 3.24572,-0.0325 0.94677,-0.065 2.44008,0.3347 2.80548,-0.85459 0.22075,-1.06166 0.14671,-2.16351 0.26348,-3.24144 -0.0616,-0.99723 0.4487,-2.22734 -0.3204,-3.03427 -0.44571,-0.41645 -1.11081,-0.49941 -1.69504,-0.43522 z"
         id="path2432" /><rect
         style="fill:#cc0000;stroke-width:3.77953;stroke-linecap:round;stroke-linejoin:round;stop-color:#000000"
         id="rect3975"
         width="204.03966"
         height="4.9102263"
         x="356.5452"
         y="370.10297"
         ry="2.4551132" /><rect
         style="fill:#cc0000;stroke:none;stroke-width:3.11973;stroke-linecap:round;stroke-linejoin:round;stroke-miterlimit:10;stop-color:#000000"
         id="rect3975-7"
         width="139.01834"
         height="4.9102263"
         x="389.05585"
         y="411.16223"
         ry="2.4551132"
         rx="0" /></g></g><metadata
     id="metadata5591"><rdf:RDF><cc:Work
         rdf:about=""><dc:title>info-titre</dc:title></cc:Work></rdf:RDF></metadata></svg>
