<?xml version="1.0" encoding="UTF-8" standalone="no"?>
<!-- Generator: Adobe Illustrator 24.1.0, SVG Export Plug-In . SVG Version: 6.00 Build 0)  -->

<svg
   version="1.1"
   id="png"
   x="0px"
   y="0px"
   viewBox="0 0 370 110"
   xml:space="preserve"
   sodipodi:docname="title-darkmode.svg"
   width="370"
   height="110"
   inkscape:version="1.3.2 (091e20e, 2023-11-25, custom)"
   xmlns:inkscape="http://www.inkscape.org/namespaces/inkscape"
   xmlns:sodipodi="http://sodipodi.sourceforge.net/DTD/sodipodi-0.dtd"
   xmlns="http://www.w3.org/2000/svg"
   xmlns:svg="http://www.w3.org/2000/svg"><defs
   id="defs7239" /><sodipodi:namedview
   id="namedview7237"
   pagecolor="#ffffff"
   bordercolor="#000000"
   borderopacity="0.25"
   inkscape:showpageshadow="2"
   inkscape:pageopacity="0.0"
   inkscape:pagecheckerboard="0"
   inkscape:deskcolor="#d1d1d1"
   showgrid="false"
   inkscape:zoom="1.7310811"
   inkscape:cx="137.1975"
   inkscape:cy="38.704137"
   inkscape:window-width="1920"
   inkscape:window-height="991"
   inkscape:window-x="-9"
   inkscape:window-y="-9"
   inkscape:window-maximized="1"
   inkscape:current-layer="png" />
<style
   type="text/css"
   id="style7210">
	.st0{fill:#EEEEEE;}
	.st1{fill:#999999;}
	.st2{fill:#555555;}
</style>












<path
   id="path2856-3-3"
   style="fill:#343434;fill-opacity:1;stroke:none;stroke-width:3.01299;stroke-linecap:square;stroke-miterlimit:10"
   d="m 294.43431,5.1333506 c -0.35707,0.00521 -0.70595,0.018615 -1.02633,0.013018 -2.45991,0.047514 -4.91985,0.094898 -7.37974,0.1423734 -1.28053,0.770199 -0.97326,2.3752295 -0.85299,3.5696719 0.23282,2.8266531 0.48916,5.6522131 0.63286,8.4843211 -0.70539,2.072024 -2.04848,3.878215 -3.11205,5.796891 -1.39325,1.904683 -5.0405,1.691676 -6.05898,-0.44239 -1.3911,-2.165906 -3.29291,-4.421113 -2.91944,-7.096112 0.28646,-3.100739 0.54589,-6.2040681 0.78697,-9.3080875 -0.6563,-1.2719753 -2.41482,-1.0881148 -3.67887,-1.0627695 -2.60222,0.035928 -5.20394,0.058579 -7.80625,0.08904 -1.32,0.8150837 -0.90751,2.4795264 -0.75118,3.7018786 0.4236,3.6130854 0.87303,7.2234504 1.34828,10.8310424 1.84599,3.794082 5.15362,6.736931 7.39901,10.309844 1.14193,1.59998 2.28257,3.213615 3.14781,4.960407 -0.25406,2.516223 -0.50813,5.032446 -0.7622,7.548682 0.75195,1.191422 2.4506,0.935783 3.70638,0.925473 2.67648,-0.02187 5.35251,-0.02044 8.02912,-0.03307 1.30159,-0.79186 0.87593,-2.403829 0.77871,-3.602723 -0.14898,-1.807975 -0.40613,-3.620675 -0.24764,-5.435862 3.29917,-4.310464 6.60108,-8.619171 9.9057,-12.926068 1.52364,-3.54857 1.09542,-7.462128 1.56014,-11.192086 -0.0127,-1.4377538 0.35897,-2.9544859 0.11834,-4.3451295 C 296.6443,5.1737963 295.50557,5.11661 294.43434,5.133689 Z m -119.58103,0.00521 c -0.20048,0.0026 -0.40376,0.023171 -0.6026,0.061052 -8.15591,0.00911 -16.3134,0.03684 -24.46982,0.053372 -1.28457,0.762076 -1.10983,2.3918008 -0.83373,3.5900054 0.25809,1.711345 0.50077,3.425515 0.85299,5.123139 2.29709,0.692289 4.82183,-0.22907 7.07156,0.678842 1.2356,1.21997 0.92554,3.022386 1.26848,4.538363 0.45999,4.819543 0.3122,9.664718 0.10735,14.492241 -0.36755,1.409389 -2.19226,1.69299 -3.52477,1.733996 -1.43813,0.16548 -3.20299,-0.555799 -4.36401,0.539006 -0.63242,1.329852 -0.33362,2.829127 -0.7099,4.215462 -0.37462,1.110349 -0.61372,2.933541 1.09512,3.122192 1.37237,0.168279 2.76037,-0.04166 4.14113,0.0483 7.05745,-0.01042 14.11598,-0.01992 21.17343,-0.03046 1.16126,-1.036343 0.46347,-2.62134 0.36597,-3.895111 -0.44965,-1.32579 0.0947,-2.963339 -0.96581,-4.080704 -2.12451,-0.431195 -4.55777,0.603483 -6.45521,-0.704278 -1.52098,-1.269684 -1.22026,-3.347501 -1.2905,-5.054485 -0.0416,-4.810353 0.0773,-9.63729 0.84199,-14.403266 1.21053,-1.269853 3.22427,-0.820473 4.83453,-0.902575 1.23338,0.112733 3.15299,0.217264 3.16982,-1.378042 0.25639,-1.807519 0.33461,-3.6344604 0.50354,-5.4511178 0.51036,-1.4935217 -0.80621,-2.3167024 -2.20952,-2.2958742 z m 20.63687,0.045822 c -0.13454,-0.0013 -0.26565,0.0013 -0.38797,0.010414 -3.02124,0.027077 -6.04249,0.054283 -9.06371,0.08136 -1.33965,0.7673612 -1.01394,2.4419446 -0.82548,3.6535703 1.11996,9.4265481 2.09106,18.9801481 0.73467,28.4327711 l -0.52831,5.166358 c 0.54471,1.191057 2.16808,0.867401 3.2799,0.849189 8.9909,0.153452 17.98622,0.180034 26.97927,0.223734 1.26769,0.447388 2.99218,-0.702924 2.52319,-1.993319 -0.54,-5.591188 -0.96537,-11.194533 -1.07311,-16.808449 -0.60715,-0.722269 -1.65829,-0.265338 -2.47643,-0.409352 -2.26548,0.01172 -4.53095,0.02382 -6.79641,0.03567 -0.69831,1.354871 -0.11736,2.880051 -0.39623,4.30445 -0.0673,1.764066 -0.12271,3.530306 -0.38797,5.280769 -1.20911,1.177246 -3.12217,0.702169 -4.67769,0.788177 -1.52864,-0.04452 -3.07283,0.268878 -4.58689,-0.04322 -1.37717,-0.671942 -1.2811,-2.330188 -1.22996,-3.559492 -0.24239,-8.256305 0.51172,-16.49617 1.11714,-24.7258021 -0.11214,-0.9816569 -1.2624,-1.2745788 -2.20401,-1.2865029 z m 109.62031,0.015231 -0.24764,0.068603 c -1.4237,0.627396 -1.1566,2.3210762 -1.01534,3.5137352 l 0.64663,6.7579542 c 1.3114,0.923508 3.00795,0.16039 4.48507,0.394095 1.3794,0.0811 3.46685,-0.527863 4.17141,0.958525 0.70003,1.684463 -0.93893,3.736388 -2.89742,3.595095 -1.36567,0.08175 -2.73674,-0.286921 -4.09712,-0.05598 -1.04483,0.861049 -0.96079,3.138621 0.44576,3.521351 1.45604,0.206029 2.9129,-0.183106 4.37228,-0.104271 2.4825,-0.149208 5.34316,-1.094142 6.2681,-3.437465 1.21414,-2.808208 0.99071,-5.894432 1.40056,-8.845352 l 0.46226,-5.2833084 c -0.51108,-1.1768296 -2.10381,-1.069083 -3.23586,-1.0475128 -3.58601,0.0026 -7.17265,-0.026426 -10.75869,-0.035668 z m -68.98494,0.043219 c -0.12961,-0.0013 -0.25472,0.0013 -0.37146,0.010414 -3.02398,0.020307 -6.04799,0.040615 -9.07196,0.061053 -1.33397,0.7921336 -0.95648,2.4617053 -0.81448,3.6840705 1.00547,9.3790729 1.71088,18.8643039 0.49805,28.2573319 -0.15637,1.794762 -0.31417,3.590253 -0.47053,5.385015 0.84802,1.2421 2.65865,0.916998 4.00081,0.922934 9.28568,0.01718 18.57137,0.01041 27.85701,-0.02031 1.04648,-0.369804 1.23673,-1.618647 0.92179,-2.501813 l -1.2162,-16.144877 c -1.33507,-0.378317 -2.7378,0.01041 -4.10261,-0.119501 -1.46099,0.182897 -3.49123,-0.259532 -4.6034,0.307645 -0.23664,1.379305 -0.007,2.789293 -0.23664,4.17223 -0.0924,1.631755 -0.19392,3.265477 -0.48703,4.87906 -1.29838,1.316586 -3.41735,0.880184 -5.12619,0.922921 -1.62405,-0.03788 -3.3398,0.325401 -4.87581,-0.333055 -1.3688,-1.076724 -0.96629,-2.91464 -1.09238,-4.380733 -0.33246,-7.973329 0.52588,-15.930985 1.307,-23.8613556 -0.0782,-0.9564938 -1.20882,-1.2311781 -2.11597,-1.240733 z m -128.74105,0.00521 -0.22563,0.086437 c -1.25887,0.8386976 -0.86669,2.461484 -0.73192,3.6764552 1.0038,9.7147312 1.8311,19.5421172 0.46502,29.2641652 -0.14377,1.501567 -0.28823,3.003732 -0.432,4.505312 1.18981,1.196017 3.10014,0.722046 4.64466,0.729688 2.18751,-0.05428 4.37504,-0.108437 6.56254,-0.16272 1.14477,-1.132596 0.39027,-2.76055 0.34119,-4.108679 -0.30767,-2.699758 -0.6388,-5.398318 -0.82823,-8.108022 0.75218,-1.623749 2.92966,-1.921045 4.62542,-1.822971 2.56677,-3.9e-5 5.2347,-0.369725 7.72093,0.345774 1.96251,0.93862 2.71352,3.300103 2.06644,5.179076 l -1.15566,7.502912 c 0.45112,1.296956 2.19472,0.990027 3.33216,0.943268 2.51012,0.0091 5.02071,-0.03215 7.53109,-0.04322 1.12573,-1.124851 0.28832,-2.696751 0.23939,-4.01969 -0.48263,-3.580125 -0.94488,-7.162529 -1.38681,-10.747145 -0.63878,-1.876187 -2.55792,-3.177295 -4.60064,-3.539158 -1.98187,-0.808341 -1.90133,-3.787613 -0.003,-4.640057 1.71758,-1.444901 1.66796,-3.775844 2.01414,-5.738416 0.29077,-2.471885 0.11426,-5.3755117 -2.0114,-7.1622156 -2.45643,-1.9905335 -5.93553,-2.0002186 -9.02244,-2.0492559 -6.38108,-0.099324 -12.76379,-0.077585 -19.14551,-0.091514 z m -10.205618,0.0026 c -0.539476,0.013018 -1.082783,0.05181 -1.579417,0.013018 L 66.52897,5.370401 c -1.247079,0.9546974 -0.812559,2.6243862 -0.544815,3.8900349 0.270576,1.4907231 0.541138,2.9814851 0.811714,4.4722471 2.876763,0.596752 5.860426,0.117288 8.755532,0.470364 1.344216,0.171234 1.979533,1.389342 1.981139,2.532326 0.275296,2.543352 0.192162,5.107662 0.253149,7.660556 -0.007,5.884525 -0.627188,11.748535 -1.353782,17.589009 0.06255,1.528969 2.110708,1.788579 3.406461,1.619571 2.557414,-0.122495 5.117462,-0.07082 7.676918,-0.06352 1.705041,-0.342923 1.401738,-2.296851 1.315266,-3.508646 -0.423193,-8.207398 -0.539448,-16.425549 -0.731934,-24.639365 0.721494,-1.292322 2.540804,-1.27674 3.896248,-1.182258 2.19852,0.01783 4.397039,0.03567 6.595544,0.05337 1.113988,-1.282311 0.683766,-3.028283 0.954793,-4.5383632 0.01761,-1.2723267 0.369066,-2.5568119 0.07157,-3.8213801 -0.648577,-0.6216843 -1.53879,-0.6749523 -2.437907,-0.6534212 z m 255.068968,0.076283 c -0.29145,0.00781 -0.58281,0.022781 -0.86674,0.033065 -5.58636,-0.017313 -11.18605,-0.1170282 -16.76539,0.2059384 -2.59095,0.1717802 -5.17311,1.2353828 -6.71937,3.2162702 -1.13844,1.3057168 -1.46994,3.0141858 -1.38406,4.6502238 0.0204,2.916996 0.54747,5.806993 0.89978,8.697888 0.38609,1.950101 1.8977,3.787391 4.04757,4.26377 4.06949,1.377379 8.49524,1.206054 12.67104,2.143334 1.42643,0.30758 2.45482,1.540633 2.45442,2.888279 0.13764,1.838423 -1.44254,3.959966 -3.60457,3.742559 -4.67697,0.0052 -9.35338,0.01302 -14.03033,0.01783 -1.36765,-0.580194 -3.16457,0.788293 -2.64152,2.140782 -0.0562,1.729258 -0.5498,3.45008 -0.44575,5.173987 0.44789,1.232883 2.15459,1.172117 3.29914,1.024628 6.74881,-0.115076 13.51958,0.102578 20.2489,-0.444942 3.40424,-0.536832 6.60389,-3.251535 6.55152,-6.587606 0.084,-3.228559 -0.44866,-6.42926 -0.75943,-9.636079 -0.32,-1.847223 -1.72299,-3.600016 -3.7339,-4.085794 -3.99053,-1.533511 -8.42532,-1.407332 -12.52796,-2.534864 -1.51006,-0.489253 -2.54703,-2.002314 -2.16824,-3.475607 0.28394,-1.615652 1.95854,-2.992133 3.77792,-2.730635 4.45428,-0.08813 8.9074,-0.176298 13.36168,-0.264427 0.83606,-1.179199 0.50648,-2.656995 0.80896,-3.971382 0.0248,-1.3230693 0.70889,-2.7289436 0.0413,-3.9993437 -0.7566,-0.444655 -1.64057,-0.4902817 -2.51495,-0.4678263 z M 120.52879,13.462919 c 0.18262,0.001 0.36488,0.0078 0.5448,0.01523 1.91327,0.01497 4.18805,-0.213007 5.65175,1.172091 1.48877,1.840454 1.7772,4.331735 1.2795,6.529144 -0.69466,1.819782 -2.93343,2.988189 -4.98038,2.616224 -1.68182,-0.04114 -3.69509,0.384019 -5.03539,-0.821228 -1.43709,-1.544134 -0.73902,-3.699744 -0.55031,-5.514683 0.26939,-1.26324 -6e-5,-3.088528 1.49135,-3.732379 0.49945,-0.220335 1.05076,-0.267485 1.59868,-0.264426 z M 71.977108,47.634106 c -1.91618,0 -3.458743,1.425362 -3.458743,3.195924 0,1.770562 1.542563,3.195923 3.458743,3.195923 H 352.51197 c 1.91617,0 3.45875,-1.425361 3.45875,-3.195923 0,-1.770562 -1.54258,-3.195924 -3.45875,-3.195924 z M 186.07973,58.045644 c -0.16124,-0.0026 -0.31847,-9.25e-4 -0.46776,0.0052 -2.83025,0.08631 -5.66496,0.05871 -8.49689,0.101667 -1.27175,0.560186 -1.33202,2.054085 -1.2052,3.178129 0.53701,7.236364 1.08737,14.513486 0.35771,21.756163 0.0359,1.303387 -0.10791,2.927475 -1.45834,3.661199 -1.54993,0.813651 -3.38533,0.55783 -5.08492,0.539006 -1.32503,-0.01679 -2.91373,-0.197438 -3.51102,-1.477198 -0.91006,-1.511629 -0.42279,-3.282516 -0.49804,-4.919726 0.12552,-7.126053 0.25147,-14.251299 0.37697,-21.377338 -0.33069,-1.493353 -2.32081,-1.528188 -3.63485,-1.436505 -2.72572,0.02317 -5.45197,0.04543 -8.17769,0.0686 -1.61615,0.473879 -1.40614,2.337166 -1.2795,3.574748 0.44984,6.618042 0.96143,13.258069 0.46228,19.887436 -0.13948,2.671419 -0.36708,5.353694 -0.21188,8.026662 0.3861,2.81223 2.57231,5.334975 5.4674,6.282513 4.19764,1.726849 8.89513,1.824806 13.41396,1.810265 4.03975,-0.08735 8.1945,-0.542859 11.85107,-2.227232 2.38576,-1.2157 4.3372,-3.47053 4.39704,-6.068946 0.34587,-3.05618 -0.3894,-6.093002 -0.4953,-9.142817 -0.46557,-5.065745 -0.0965,-10.151849 0.40999,-15.201609 0.1594,-1.8561 0.31937,-3.711967 0.47877,-5.568068 -0.23621,-1.164293 -1.5651,-1.450811 -2.6938,-1.472107 z m -41.14166,0.01302 c -0.2134,-0.0065 -0.42709,0.0026 -0.63286,0.02291 -10.13498,0.01861 -20.27001,0.03723 -30.40499,0.05598 -1.2292,0.31362 -1.56327,1.660056 -1.44458,2.689969 0.26986,1.925745 0.53657,3.856306 0.80071,5.784186 0.69597,1.223745 2.40759,0.925043 3.64585,0.940716 2.11399,0.03098 4.22967,0.04036 6.33964,0.177977 1.1551,1.044037 0.88026,2.660093 0.90802,4.009523 -0.0617,7.710257 -0.6562,15.404749 -1.15016,23.098603 -0.0176,1.441139 1.49841,2.389301 2.95795,2.186552 3.14458,-0.01692 6.28969,-0.05663 9.43518,-0.09659 1.50056,-0.799632 1.38178,-2.602686 1.29325,-3.9841 -0.25547,-7.406231 -0.72264,-14.808894 -0.65763,-22.221438 -0.39895,-1.29033 0.56224,-3.074665 2.22052,-2.750983 1.52452,0.01302 3.05351,0.09607 4.57313,-0.04062 1.33382,-0.08461 3.43649,0.434541 3.95127,-1.113616 0.311,-1.382039 0.20696,-2.817346 0.37146,-4.220551 -0.0868,-1.298154 0.63226,-2.898069 -0.45125,-3.948497 -0.47094,-0.406592 -1.11531,-0.569325 -1.75551,-0.589867 z m 84.82029,0.0686 c -0.15891,0.0052 -0.31429,0.01914 -0.46227,0.04062 -2.75615,0.0246 -5.51234,0.04921 -8.2685,0.07368 -1.20076,0.656321 -1.15927,2.131801 -0.96856,3.246771 0.44008,3.400248 0.88066,6.800196 1.21896,10.210676 -0.34248,1.10371 -1.94316,1.209113 -2.80937,0.584776 -0.9314,-0.848825 -1.53476,-1.981187 -2.39662,-2.906074 -2.7155,-3.376217 -5.38773,-6.783807 -8.24376,-10.060674 -1.49684,-1.379488 -3.82445,-1.166949 -5.7563,-1.172091 -1.43925,0.02083 -2.88327,1.17e-4 -4.31448,0.165258 -1.1537,0.870903 -0.90502,2.399911 -0.75394,3.605262 0.76186,6.819645 1.54648,13.721014 0.60535,20.5612 -0.39646,4.258381 -0.65918,8.525822 -0.94655,12.79131 0.2078,1.473579 2.08682,1.9312 3.456,1.782291 2.74904,-0.04035 5.49743,-0.08162 8.24648,-0.121974 1.43106,-0.694346 1.42308,-2.411106 1.26299,-3.701879 -0.44926,-5.349854 -0.88813,-10.699604 -1.31801,-16.050799 0.47806,-1.533134 2.90655,-1.104113 3.44223,0.190682 2.50852,3.151521 4.83758,6.4202 7.18163,9.676759 1.19987,1.025761 0.94899,2.673242 0.89151,4.029857 -0.0211,1.57043 -0.0421,3.140834 -0.0633,4.71125 0.76942,1.347438 2.64419,1.256654 4.05858,1.228028 2.51202,-0.02942 5.02455,-0.05975 7.53657,-0.08904 1.31819,-0.627605 1.41745,-2.184782 1.37304,-3.391696 -0.0859,-11.337205 -0.17821,-22.673838 -0.26689,-34.011005 -0.29671,-1.070814 -1.59241,-1.434149 -2.70481,-1.393286 z m 39.00644,0.01523 -0.25864,0.0026 -0.23115,0.0026 c -8.65188,0.01172 -17.30378,0.02369 -25.95568,0.03567 -1.45126,0.378421 -1.53025,2.045506 -1.30699,3.183205 0.73194,6.106242 1.2859,12.268719 0.75943,18.410238 -0.37456,4.686699 -0.77334,9.371302 -0.98231,14.067646 -0.42118,1.19016 0.1621,2.820458 1.59317,3.124731 9.28374,0.05012 18.56768,0.01536 27.85152,0.02291 1.74646,-0.194848 2.06029,-2.144376 1.86557,-3.462889 -0.11834,-1.600279 -0.16397,-3.203851 -0.23389,-4.805328 -0.0113,-0.896326 -0.74643,-1.639032 -1.73073,-1.652622 -1.78808,-0.173981 -3.59261,-0.02421 -5.38761,-0.07876 l -10.94304,-0.01041 c -0.5326,-1.349469 -0.42613,-2.812855 -0.71541,-4.207833 -0.0341,-1.60162 2.1602,-1.535738 3.38169,-1.421261 2.75881,0.0026 5.51807,-0.01172 8.27676,-0.03554 1.00003,0.391609 1.97449,-0.72176 1.59317,-1.586519 -0.0835,-1.724649 -0.39576,-3.444781 -0.27241,-5.173986 -0.14484,-0.783946 -1.17155,-0.969564 -1.88759,-0.866985 -2.97632,0.02395 -5.9526,-0.01783 -8.92889,-0.03046 -1.34334,0.469362 -3.02546,-0.72935 -2.63601,-2.069603 0.15004,-1.312329 -0.25512,-2.848041 0.7787,-3.930701 1.30522,-0.725666 2.88907,-0.190956 4.31999,-0.363569 4.21468,-0.0091 8.42885,-0.01796 12.64352,0.0052 1.03363,-0.441049 0.9443,-1.660043 1.03184,-2.539954 0.14667,-1.817048 0.29391,-3.63407 0.44025,-5.451118 -0.39963,-1.159152 -1.96031,-1.202904 -3.06526,-1.167001 z m 36.6731,0.02799 c -0.52569,0.0078 -1.05755,0.04322 -1.54914,0.01302 -2.54009,0.0065 -5.07905,0.01328 -7.61913,0.02031 -3.05549,0.02604 -6.10975,0.09711 -9.16278,0.213567 -2.73015,0.489904 -5.58217,1.601294 -7.10733,3.86715 -1.42017,2.743562 -0.87288,5.866639 -0.69066,8.786877 0.15715,2.227479 0.18209,4.505389 0.96856,6.641004 1.38818,2.202629 4.16906,3.171385 6.74689,3.633237 3.13894,0.49144 6.28259,0.958212 9.41591,1.482274 1.79642,0.52043 1.91966,3.252667 0.17059,3.902727 -1.74927,0.613545 -3.63373,0.137219 -5.44537,0.287311 -3.79847,0.0039 -7.59583,0.0065 -11.39431,0.01041 -1.56862,0.314244 -1.92733,2.043202 -1.8188,3.307796 0.0141,1.669806 -0.004,3.338975 -0.022,5.008715 0.39112,1.470116 2.29755,1.835559 3.71464,1.733983 6.45089,-0.13865 12.90826,-0.05415 19.35463,-0.350863 3.11507,-0.320077 6.3415,-1.566876 8.10066,-4.075627 1.45326,-2.405456 1.13445,-5.284154 0.72918,-7.902084 -0.42203,-2.455352 -0.62273,-5.063219 -2.06645,-7.22578 -1.73389,-2.106716 -4.68956,-2.750332 -7.36323,-3.198462 -2.85329,-0.540361 -5.74364,-0.893046 -8.5877,-1.477198 -2.10509,-0.719365 -2.5566,-3.801255 -0.64387,-4.942612 1.4848,-0.869315 3.30579,-0.499003 4.96111,-0.628007 3.56644,-0.07199 7.13173,-0.144105 10.69816,-0.216105 1.02144,-1.180215 0.65504,-2.781574 0.9823,-4.162077 -0.10199,-1.362929 0.84464,-2.816851 0.033,-4.10105 -0.66417,-0.57599 -1.52876,-0.640479 -2.40488,-0.627995 z M 117.77994,101.08278 c -1.91616,0 -3.45873,1.42536 -3.45873,3.19592 0,1.77056 1.54257,3.19592 3.45873,3.19592 h 188.93194 c 1.91617,0 3.45873,-1.42536 3.45873,-3.19592 0,-1.77056 -1.54256,-3.19592 -3.45873,-3.19592 z" /><path
   style="fill:#eeeeee;stroke:none;stroke-width:3.01299;stroke-linecap:square;stroke-miterlimit:10;fill-opacity:1"
   d="m 351.38106,2.7551011 c -5.58635,-0.017313 -11.18603,-0.1170282 -16.76539,0.2059383 -2.59094,0.1717672 -5.17449,1.236281 -6.72076,3.2171815 -1.13844,1.3057038 -1.46867,3.0140288 -1.38279,4.6500801 0.0204,2.916996 0.54796,5.80724 0.90028,8.698149 0.38609,1.950101 1.89692,3.787092 4.04679,4.263483 4.06949,1.377379 8.49632,1.205833 12.67214,2.143113 1.42643,0.30758 2.45414,1.540099 2.45374,2.887745 0.13764,1.838423 -1.44196,3.960903 -3.60401,3.743496 -4.67697,0.0052 -9.35394,0.01172 -14.03089,0.01692 -1.36765,-0.580194 -3.16457,0.788293 -2.64152,2.140783 -0.0562,1.729257 -0.54951,3.45112 -0.44545,5.175027 0.44789,1.232884 2.15429,1.171076 3.29884,1.023587 6.74881,-0.115076 13.51947,0.101537 20.24879,-0.446009 3.40423,-0.536833 6.60464,-3.250832 6.55228,-6.586916 0.084,-3.228559 -0.44885,-6.428583 -0.75962,-9.635403 -0.32,-1.847235 -1.72326,-3.599573 -3.73416,-4.085351 -3.99053,-1.533511 -8.4248,-1.408529 -12.52744,-2.536061 -1.51006,-0.489254 -2.54776,-2.001859 -2.16898,-3.475151 0.28395,-1.615666 1.95738,-2.99216 3.77676,-2.730662 4.45429,-0.08813 8.90857,-0.176272 13.36286,-0.264401 0.83606,-1.1791986 0.50541,-2.6583358 0.80789,-3.9727224 0.0248,-1.3230693 0.70988,-2.7276157 0.0423,-3.9980158 -1.00881,-0.5928734 -2.24596,-0.4758842 -3.3817,-0.4347617 z"
   id="path2856-0" /><path
   style="fill:#eeeeee;stroke:none;stroke-width:3.01299;stroke-linecap:square;stroke-miterlimit:10;fill-opacity:1"
   d="m 304.86281,2.6635613 c -1.4237,0.627396 -1.15595,2.3216751 -1.01468,3.5143341 0.21532,2.2524605 0.43064,4.5049076 0.64596,6.7573686 1.31141,0.923507 3.00797,0.160364 4.48509,0.394082 1.3794,0.0811 3.46789,-0.527265 4.17245,0.959123 0.70004,1.684464 -0.94116,3.73493 -2.89964,3.593637 -1.36568,0.08175 -2.73556,-0.286048 -4.09594,-0.05506 -1.04484,0.861049 -0.96079,3.13862 0.44576,3.521363 1.45604,0.20603 2.91342,-0.182233 4.3728,-0.103359 2.48252,-0.149208 5.34132,-1.093947 6.26626,-3.43727 1.21415,-2.808208 0.99111,-5.895148 1.40096,-8.8460679 0.15439,-1.7612155 0.30879,-3.522418 0.46318,-5.2836335 -0.51108,-1.1768297 -2.10432,-1.0691221 -3.23638,-1.0475519 -3.58601,0.0026 -7.17213,-0.026296 -10.75818,-0.035538 l -0.24668,0.068342 z"
   id="path2854-1" /><path
   style="fill:#eeeeee;stroke:none;stroke-width:3.01299;stroke-linecap:square;stroke-miterlimit:10;fill-opacity:1"
   d="m 293.40797,2.5415214 c -2.45991,0.047514 -4.91984,0.094898 -7.37975,0.1423864 -1.28052,0.7701991 -0.97326,2.3752295 -0.85299,3.5696719 0.23282,2.8266536 0.48917,5.6522003 0.63287,8.4843083 -0.70539,2.072024 -2.04847,3.878215 -3.11204,5.796905 -1.39325,1.904682 -5.04051,1.691675 -6.05899,-0.44239 -1.39111,-2.165907 -3.2937,-4.42183 -2.92023,-7.096829 0.28645,-3.1007386 0.54668,-6.2033652 0.78775,-9.3073847 -0.65629,-1.2719753 -2.41404,-1.0872556 -3.67809,-1.0619104 -2.60222,0.035929 -5.2047,0.057668 -7.80701,0.088129 -1.32,0.8150837 -0.90751,2.4795264 -0.75118,3.7018785 0.4236,3.6130856 0.87303,7.2234376 1.34828,10.8310426 1.84599,3.794082 5.15338,6.737842 7.39877,10.310756 1.14194,1.599979 2.2828,3.212703 3.14803,4.959495 -0.25405,2.516223 -0.50811,5.032446 -0.76218,7.548682 0.75195,1.191422 2.44982,0.934689 3.70561,0.924379 2.67647,-0.02187 5.35328,-0.0194 8.02989,-0.03202 1.30159,-0.79186 0.87616,-2.402788 0.77894,-3.601682 -0.14899,-1.807975 -0.40638,-3.621716 -0.24788,-5.436903 3.29918,-4.310464 6.60108,-8.619158 9.90569,-12.926055 1.52366,-3.54857 1.09542,-7.463313 1.56015,-11.1932703 -0.0127,-1.4377674 0.35829,-2.9544864 0.11763,-4.34513 -0.81022,-1.1838852 -2.56168,-0.8906639 -3.84322,-0.9141216 z"
   id="path2852-5" /><path
   style="fill:#eeeeee;stroke:none;stroke-width:3.01299;stroke-linecap:square;stroke-miterlimit:10;fill-opacity:1"
   d="m 235.75405,2.6483177 c -3.02398,0.020307 -6.04798,0.040615 -9.07196,0.061053 -1.33398,0.7921336 -0.95647,2.4617313 -0.81447,3.6840835 1.00547,9.3790728 1.70947,18.8650458 0.49662,28.2580868 -0.15636,1.794749 -0.31274,3.589498 -0.4691,5.38426 0.84802,1.242113 2.65863,0.916985 4.00079,0.922921 9.2857,0.01718 18.57138,0.01041 27.85703,-0.02031 1.04648,-0.369804 1.23671,-1.618673 0.92177,-2.501826 -0.4054,-5.381617 -0.8108,-10.763247 -1.21619,-16.144864 -1.33508,-0.378317 -2.73825,0.01041 -4.10307,-0.11885 -1.46099,0.182897 -3.49047,-0.260495 -4.60264,0.306681 -0.23663,1.379332 -0.007,2.789306 -0.23686,4.172244 -0.0924,1.631742 -0.19401,3.265789 -0.48711,4.879385 -1.29839,1.316586 -3.4162,0.881161 -5.12504,0.923924 -1.62405,-0.03788 -3.34095,0.324385 -4.87696,-0.334071 -1.3688,-1.076724 -0.96729,-2.916058 -1.09338,-4.382165 -0.33247,-7.973342 0.52689,-15.929527 1.30801,-23.8599105 -0.0893,-1.0931395 -1.5535,-1.2968258 -2.48744,-1.2305663 z"
   id="path2850-3" /><path
   style="fill:#eeeeee;stroke:none;stroke-width:3.01299;stroke-linecap:square;stroke-miterlimit:10;fill-opacity:1"
   d="m 195.10216,2.5898297 c -3.02123,0.027077 -6.04247,0.054283 -9.0637,0.08136 -1.33966,0.7673612 -1.01394,2.4419316 -0.82548,3.6535703 1.11996,9.426561 2.09157,18.980617 0.73518,28.433226 -0.17627,1.721968 -0.35254,3.443935 -0.52881,5.165903 0.54471,1.19107 2.16828,0.86813 3.28009,0.849918 8.99092,0.153452 17.98602,0.179305 26.97906,0.223018 1.26769,0.447389 2.9922,-0.702937 2.52321,-1.993319 -0.54,-5.591214 -0.96537,-11.19452 -1.07312,-16.808462 -0.60715,-0.722256 -1.65828,-0.265325 -2.47642,-0.409339 -2.26548,0.01172 -4.53095,0.02369 -6.79641,0.03554 -0.69831,1.354872 -0.11623,2.878855 -0.39516,4.303253 -0.0673,1.764066 -0.12383,3.531504 -0.38904,5.281967 -1.20911,1.177246 -3.121,0.701844 -4.67652,0.787851 -1.52864,-0.04452 -3.074,0.269139 -4.58806,-0.04296 -1.37717,-0.671955 -1.2811,-2.330202 -1.22996,-3.559505 -0.24239,-8.256319 0.51172,-16.49617 1.11714,-24.7258022 -0.1282,-1.1219084 -1.61341,-1.3452383 -2.592,-1.2763362 z"
   id="path2848-7" /><path
   style="fill:#eeeeee;stroke:none;stroke-width:3.01299;stroke-linecap:square;stroke-miterlimit:10;fill-opacity:1"
   d="m 149.78085,2.6483177 c -1.28457,0.7620891 -1.10982,2.3918009 -0.83372,3.5900054 0.25809,1.7113321 0.50076,3.425515 0.85297,5.1231269 2.2971,0.692301 4.82185,-0.229084 7.07158,0.678854 1.2356,1.21997 0.9258,3.02322 1.26875,4.539197 0.45999,4.819543 0.31195,9.663872 0.10707,14.491408 -0.36756,1.409389 -2.19226,1.692977 -3.52477,1.733982 -1.43813,0.16548 -3.20299,-0.555799 -4.36402,0.539007 -0.63241,1.329851 -0.33363,2.829127 -0.70991,4.215462 -0.37462,1.110348 -0.61371,2.933541 1.09514,3.122192 1.37236,0.168278 2.76142,-0.04062 4.1422,0.04934 7.05744,-0.01041 14.11489,-0.02096 21.17236,-0.0315 1.16125,-1.036344 0.46345,-2.621327 0.36595,-3.895099 -0.44965,-1.32579 0.0947,-2.963351 -0.96581,-4.080717 -2.12451,-0.431194 -4.55777,0.603496 -6.45521,-0.704264 -1.52098,-1.269685 -1.22024,-3.346486 -1.29048,-5.05347 -0.0416,-4.810353 0.0773,-9.638305 0.84197,-14.404281 1.21054,-1.269867 3.22299,-0.821671 4.83325,-0.903773 1.23338,0.112733 3.15428,0.218461 3.17112,-1.376845 0.25639,-1.8075189 0.33565,-3.6359052 0.50458,-5.4525626 0.58326,-1.7068801 -1.22243,-2.5363352 -2.81317,-2.2334158 -8.15591,0.00911 -16.31339,0.03684 -24.46983,0.053372 z"
   id="path2846-2" /><path
   id="path2844-6"
   style="fill:#eeeeee;stroke:none;stroke-width:3.01299;stroke-linecap:square;stroke-miterlimit:10;fill-opacity:1"
   d="m 107.15884,2.7296777 c -1.25887,0.8387106 -0.8667,2.461471 -0.73194,3.6764422 1.00381,9.7147451 1.83043,19.5427031 0.46435,29.2647641 -0.14377,1.501567 -0.28756,3.003146 -0.43132,4.504713 1.18981,1.196043 3.10015,0.722047 4.64467,0.729701 2.18751,-0.05428 4.37502,-0.108436 6.56253,-0.16272 1.14478,-1.132596 0.39076,-2.760758 0.34167,-4.108887 -0.30767,-2.699758 -0.63927,-5.39811 -0.8287,-8.107826 0.75218,-1.62375 2.92844,-1.920161 4.62419,-1.822086 2.56679,-3.9e-5 5.23513,-0.370963 7.72137,0.344537 1.96252,0.93862 2.71431,3.300455 2.06723,5.179427 -0.38522,2.50098 -0.77045,5.001946 -1.15567,7.502912 0.45111,1.296956 2.1945,0.989702 3.33195,0.942943 2.51012,0.0091 5.02091,-0.03189 7.5313,-0.04296 1.12572,-1.124864 0.28831,-2.696751 0.23938,-4.01969 -0.48263,-3.580138 -0.94486,-7.162528 -1.38679,-10.747144 -0.63878,-1.8762 -2.55793,-3.177296 -4.60065,-3.539159 -1.98187,-0.808354 -1.9014,-3.787613 -0.003,-4.640057 1.7176,-1.444901 1.66801,-3.77643 2.01419,-5.739002 0.29077,-2.4718849 0.11313,-5.3740796 -2.01257,-7.1607965 -2.45643,-1.9905335 -5.93488,-2.0023795 -9.02179,-2.0514168 -6.3811,-0.099324 -12.7633,-0.076283 -19.14503,-0.090212 z m 13.91475,8.1436123 c 1.91327,0.01497 4.18805,-0.212994 5.65175,1.172091 1.48877,1.840467 1.77778,4.331045 1.28007,6.528454 -0.69465,1.819782 -2.934,2.988892 -4.98095,2.616927 -1.68182,-0.04114 -3.69509,0.384032 -5.03539,-0.821228 -1.43709,-1.544121 -0.73852,-3.70029 -0.54981,-5.515216 0.2694,-1.263241 -2.9e-4,-3.088216 1.49112,-3.73208 0.66593,-0.293768 1.42353,-0.279019 2.14321,-0.248948 z" /><path
   style="fill:#eeeeee;stroke:none;stroke-width:3.01299;stroke-linecap:square;stroke-miterlimit:10;fill-opacity:1"
   d="m 66.528956,2.7652678 c -1.247079,0.9546974 -0.812559,2.6243732 -0.544815,3.8900219 0.270576,1.4907489 0.541152,2.9814979 0.811728,4.4722603 2.876763,0.596739 5.860257,0.117548 8.755377,0.470664 1.344216,0.171233 1.979688,1.389042 1.981294,2.532026 0.275296,2.543339 0.192472,5.107063 0.253459,7.65997 -0.007,5.884538 -0.627498,11.749108 -1.354092,17.589582 0.06255,1.528969 2.109454,1.789334 3.405207,1.620326 2.557414,-0.122495 5.118716,-0.0716 7.678172,-0.06431 1.705041,-0.342922 1.402513,-2.29823 1.31604,-3.510038 -0.423192,-8.207398 -0.540222,-16.42413 -0.732708,-24.637959 0.721494,-1.292322 2.54079,-1.276753 3.896234,-1.182271 2.198519,0.01783 4.397039,0.03567 6.595544,0.05337 1.113988,-1.282311 0.68285,-3.029507 0.953877,-4.5395871 0.01761,-1.2723267 0.369925,-2.5555622 0.07241,-3.8201434 C 98.57897,2.304497 96.924886,2.763224 95.600534,2.6590312 85.909989,2.6944391 76.219444,2.7298469 66.5289,2.7652548 Z"
   id="path2430-1" /><path
   style="fill:#eeeeee;stroke:none;stroke-width:3.01299;stroke-linecap:square;stroke-miterlimit:10;fill-opacity:1"
   d="m 296.26961,55.598401 c -3.05548,0.02604 -6.10974,0.09711 -9.16277,0.213566 -2.73015,0.489892 -5.58217,1.601282 -7.10734,3.867137 -1.42016,2.743563 -0.87286,5.86664 -0.69064,8.786877 0.15715,2.22748 0.18209,4.50539 0.96856,6.641004 1.38818,2.202629 4.16834,3.171269 6.74617,3.633133 3.13896,0.491427 6.28329,0.958329 9.41662,1.482378 1.79641,0.520431 1.91967,3.252668 0.1706,3.902741 -1.74927,0.613545 -3.63263,0.137413 -5.44427,0.287519 -3.79847,0.0039 -7.59694,0.0065 -11.39542,0.01041 -1.56863,0.314258 -1.92801,2.042682 -1.81948,3.307263 0.0141,1.669819 -0.003,3.339534 -0.0213,5.009262 0.39111,1.470116 2.29801,1.834999 3.7151,1.733436 6.4509,-0.138663 12.90779,-0.05363 19.35417,-0.350316 3.11506,-0.320064 6.34149,-1.566863 8.10066,-4.075627 1.45326,-2.405456 1.13444,-5.284167 0.72917,-7.902097 -0.42202,-2.455353 -0.62272,-5.063219 -2.06644,-7.22578 -1.7339,-2.106716 -4.68881,-2.749954 -7.36249,-3.198085 -2.85329,-0.54036 -5.74437,-0.893411 -8.58843,-1.477562 -2.1051,-0.719366 -2.5566,-3.801268 -0.64387,-4.942625 1.4848,-0.869315 3.3046,-0.499107 4.95993,-0.628112 3.56644,-0.07199 7.13289,-0.144 10.69932,-0.216001 1.02145,-1.180214 0.65506,-2.78156 0.98232,-4.162063 -0.10199,-1.36293 0.84459,-2.816852 0.033,-4.10105 -1.06268,-0.921581 -2.64199,-0.534581 -3.95288,-0.616084 -2.54009,0.0065 -5.08019,0.01406 -7.62029,0.02109 z"
   id="path2867-2" /><path
   style="fill:#eeeeee;stroke:none;stroke-width:3.01299;stroke-linecap:square;stroke-miterlimit:10;fill-opacity:1"
   d="m 268.27501,55.542464 c -8.65189,0.01172 -17.30378,0.02369 -25.95568,0.03554 -1.45127,0.378422 -1.53133,2.046093 -1.30808,3.183792 0.73195,6.106241 1.28795,12.26687 0.76148,18.408402 -0.37456,4.686712 -0.77431,9.372538 -0.98328,14.068896 -0.42118,1.19016 0.1621,2.820457 1.59317,3.12473 9.28375,0.05012 18.56768,0.01536 27.85151,0.02291 1.74646,-0.19486 2.06036,-2.14487 1.86565,-3.463383 -0.11834,-1.600266 -0.16403,-3.203331 -0.23395,-4.80482 -0.0113,-0.896327 -0.74643,-1.63902 -1.73075,-1.652623 -1.78807,-0.173967 -3.59144,-0.0233 -5.38644,-0.07784 -3.64808,-0.0039 -7.29613,-0.0078 -10.94421,-0.01172 -0.5326,-1.349469 -0.42612,-2.812842 -0.7154,-4.207833 -0.0341,-1.601607 2.16073,-1.53635 3.38222,-1.42186 2.75882,0.0026 5.51754,-0.01172 8.27623,-0.03502 1.00003,0.391609 1.97449,-0.721773 1.59317,-1.586519 -0.0835,-1.724662 -0.39577,-3.444781 -0.27241,-5.173986 -0.14484,-0.783959 -1.17154,-0.96959 -1.88758,-0.866998 -2.97632,0.02395 -5.9526,-0.01783 -8.92889,-0.03046 -1.34334,0.469362 -3.02547,-0.729324 -2.63602,-2.06959 0.15004,-1.312343 -0.25511,-2.848041 0.77871,-3.930702 1.30522,-0.725665 2.88849,-0.189887 4.31941,-0.362501 4.21468,-0.0091 8.42942,-0.01913 12.64409,0.0039 1.03363,-0.441049 0.94431,-1.660043 1.03185,-2.539954 0.14667,-1.817048 0.29391,-3.63407 0.44025,-5.451118 -0.39963,-1.159152 -1.96084,-1.20155 -3.06578,-1.165648 l -0.25753,0.0026 z"
   id="path2865-6" /><path
   style="fill:#eeeeee;stroke:none;stroke-width:3.01299;stroke-linecap:square;stroke-miterlimit:10;fill-opacity:1"
   d="m 202.07193,55.539913 c -1.43926,0.02083 -2.88326,1.17e-4 -4.31448,0.165271 -1.15371,0.87089 -0.90412,2.400262 -0.75304,3.60564 0.76186,6.819644 1.54558,13.720623 0.60445,20.560809 -0.39647,4.258394 -0.65917,8.525822 -0.94654,12.79131 0.2078,1.473579 2.08614,1.930054 3.45532,1.781146 2.74906,-0.04036 5.49811,-0.08058 8.24716,-0.120934 1.43106,-0.694358 1.42208,-2.410194 1.26199,-3.700967 -0.44926,-5.349854 -0.88714,-10.700502 -1.31703,-16.051697 0.47807,-1.533147 2.90774,-1.104335 3.44342,0.19046 2.50852,3.151521 4.8364,6.420409 7.18045,9.676968 1.19988,1.025761 0.94899,2.673241 0.89151,4.02987 -0.0211,1.570417 -0.0421,3.140833 -0.0633,4.71125 0.76942,1.347438 2.64469,1.255703 4.05908,1.227091 2.51204,-0.02942 5.02406,-0.05871 7.53609,-0.088 1.31819,-0.627605 1.4183,-2.184249 1.37389,-3.391162 -0.0859,-11.337206 -0.17906,-22.674359 -0.26774,-34.011539 -0.33911,-1.223797 -1.98327,-1.524491 -3.16708,-1.352619 -2.75617,0.0246 -5.51234,0.04921 -8.26851,0.07368 -1.20075,0.656321 -1.16032,2.131033 -0.96961,3.246003 0.44008,3.400248 0.8817,6.800964 1.22,10.211444 -0.34248,1.10371 -1.94316,1.209113 -2.80936,0.584776 -0.93141,-0.848825 -1.53458,-1.980549 -2.39646,-2.905436 -2.7155,-3.376217 -5.38788,-6.784445 -8.24391,-10.061312 -1.49685,-1.379488 -3.82445,-1.166949 -5.75631,-1.172091 z"
   id="path2863-7" /><path
   style="fill:#eeeeee;stroke:none;stroke-width:3.01299;stroke-linecap:square;stroke-miterlimit:10;fill-opacity:1"
   d="m 185.61197,55.445848 c -2.83025,0.08631 -5.66496,0.05871 -8.49689,0.101667 -1.27175,0.560186 -1.33092,2.053369 -1.2041,3.1774 0.53701,7.236377 1.08625,14.514215 0.3566,21.756892 0.0359,1.303387 -0.10791,2.927475 -1.45833,3.661199 -1.54993,0.813651 -3.38627,0.557999 -5.08586,0.539175 -1.32503,-0.01679 -2.91176,-0.196891 -3.50905,-1.476651 -0.91007,-1.511629 -0.42331,-3.282399 -0.49857,-4.919622 0.12553,-7.126053 0.25097,-14.252106 0.37647,-21.378145 -0.33069,-1.493353 -2.32132,-1.528917 -3.63536,-1.437234 -2.72573,0.02317 -5.45146,0.04621 -8.1772,0.06938 -1.61614,0.473879 -1.40731,2.337791 -1.28067,3.575373 0.44983,6.618041 0.96371,13.258356 0.46455,19.887722 -0.13947,2.671419 -0.36942,5.352145 -0.21421,8.025126 0.3861,2.81223 2.57284,5.334402 5.46793,6.281953 4.19765,1.726849 8.89619,1.826082 13.41503,1.811542 4.03975,-0.08735 8.19504,-0.543055 11.85161,-2.227428 2.38576,-1.2157 4.33596,-3.47109 4.39579,-6.069506 0.3459,-3.056193 -0.39032,-6.091583 -0.49622,-9.141411 -0.46557,-5.065745 -0.0947,-10.152357 0.41185,-15.202116 0.15939,-1.856101 0.31879,-3.712202 0.47819,-5.568303 -0.26997,-1.330619 -1.96719,-1.515091 -3.16156,-1.467017 z"
   id="path2861-6" /><path
   style="fill:#eeeeee;stroke:none;stroke-width:3.01299;stroke-linecap:square;stroke-miterlimit:10;fill-opacity:1"
   d="m 144.30519,55.476361 c -10.13499,0.01862 -20.26999,0.03723 -30.40498,0.05598 -1.22921,0.31362 -1.56464,1.661007 -1.44595,2.690907 0.26986,1.925744 0.53794,3.855369 0.80208,5.783235 0.69596,1.223745 2.40758,0.92507 3.64584,0.94073 2.11399,0.03098 4.22968,0.04035 6.33965,0.177976 1.1551,1.044038 0.88025,2.660081 0.90802,4.009511 -0.0617,7.710269 -0.65619,15.404735 -1.15015,23.098603 -0.0176,1.441139 1.497,2.38934 2.95654,2.186591 3.14458,-0.01692 6.29109,-0.05663 9.43658,-0.09659 1.50055,-0.799632 1.38156,-2.601684 1.29303,-3.983098 -0.25547,-7.406244 -0.72242,-14.809884 -0.65742,-22.222441 -0.39894,-1.290317 0.56167,-3.074209 2.21995,-2.750526 1.52452,0.01302 3.05298,0.09438 4.5726,-0.04231 1.33382,-0.08461 3.43761,0.435699 3.95239,-1.11247 0.311,-1.382026 0.20669,-2.81637 0.3712,-4.219576 -0.0868,-1.298153 0.63213,-2.899461 -0.45139,-3.949889 -0.62792,-0.542118 -1.56492,-0.650112 -2.38799,-0.566552 z"
   id="path2432-6" /><rect
   style="fill:#cc0000;stroke:none;stroke-width:5.11834;stroke-linecap:round;stroke-linejoin:round;stroke-miterlimit:10;stop-color:#000000"
   id="rect3975-73"
   width="287.45319"
   height="6.3919339"
   x="68.518738"
   y="45.028511"
   ry="3.195967" /><rect
   style="fill:#cc0000;stroke:none;stroke-width:4.22482;stroke-linecap:round;stroke-linejoin:round;stroke-miterlimit:10;stop-color:#000000"
   id="rect3975-7-0"
   width="195.85048"
   height="6.3919339"
   x="114.32008"
   y="98.477798"
   ry="3.195967"
   rx="0" /></svg>
